<svg width="251" height="45" viewBox="0 0 251 45" fill="none" xmlns="http://www.w3.org/2000/svg">
<rect x="1" y="1" width="249" height="43" rx="21.5" fill="#B6DDFF"/>
<path d="M26.65 15.256V15.616C26.386 15.712 26.122 15.922 25.858 16.246C25.594 16.57 25.288 17.05 24.94 17.686L21.016 25.57L20.602 25.66L15.508 16.714C15.28 16.318 15.07 16.042 14.878 15.886C14.686 15.73 14.5 15.64 14.32 15.616V15.256C14.488 15.268 14.71 15.28 14.986 15.292C15.274 15.292 15.574 15.298 15.886 15.31C16.198 15.31 16.474 15.31 16.714 15.31C16.99 15.31 17.308 15.31 17.668 15.31C18.04 15.298 18.4 15.292 18.748 15.292C19.096 15.28 19.372 15.268 19.576 15.256V15.616C19.348 15.628 19.144 15.676 18.964 15.76C18.796 15.844 18.694 15.994 18.658 16.21C18.622 16.414 18.688 16.696 18.856 17.056L22.132 22.87L21.376 24.04L23.86 19.018C24.304 18.154 24.538 17.476 24.562 16.984C24.586 16.492 24.46 16.144 24.184 15.94C23.908 15.736 23.524 15.628 23.032 15.616V15.256C23.44 15.268 23.824 15.28 24.184 15.292C24.544 15.304 24.904 15.31 25.264 15.31C25.54 15.31 25.792 15.304 26.02 15.292C26.26 15.28 26.47 15.268 26.65 15.256ZM21.052 24.67L21.394 24.814L20.548 26.524C20.392 26.836 20.254 27.082 20.134 27.262C20.014 27.442 19.888 27.598 19.756 27.73C19.564 27.922 19.33 28.054 19.054 28.126C18.79 28.21 18.52 28.252 18.244 28.252C17.632 28.252 17.146 28.108 16.786 27.82C16.426 27.532 16.246 27.178 16.246 26.758C16.246 26.326 16.402 25.984 16.714 25.732C17.026 25.468 17.404 25.336 17.848 25.336C18.304 25.336 18.676 25.438 18.964 25.642C19.252 25.834 19.396 26.116 19.396 26.488C19.396 26.824 19.276 27.106 19.036 27.334C18.808 27.562 18.526 27.73 18.19 27.838C18.226 27.862 18.274 27.88 18.334 27.892C18.394 27.892 18.466 27.892 18.55 27.892C18.898 27.892 19.198 27.772 19.45 27.532C19.714 27.28 19.954 26.932 20.17 26.488L21.052 24.67ZM29.9361 18.442C30.5481 18.442 31.0941 18.526 31.5741 18.694C32.0541 18.85 32.4261 19.084 32.6901 19.396C32.9661 19.708 33.1041 20.098 33.1041 20.566C33.1041 21.094 32.9301 21.526 32.5821 21.862C32.2341 22.198 31.7901 22.456 31.2501 22.636C30.7221 22.816 30.1761 22.948 29.6121 23.032C30.4161 23.044 31.1181 23.128 31.7181 23.284C32.3181 23.44 32.7861 23.692 33.1221 24.04C33.4581 24.376 33.6261 24.826 33.6261 25.39C33.6261 25.966 33.4401 26.47 33.0681 26.902C32.6961 27.334 32.1741 27.67 31.5021 27.91C30.8301 28.138 30.0381 28.252 29.1261 28.252C28.6101 28.252 28.1481 28.204 27.7401 28.108C27.3321 28.012 26.9721 27.868 26.6601 27.676C26.3841 27.484 26.1681 27.274 26.0121 27.046C25.8561 26.818 25.7781 26.56 25.7781 26.272C25.7781 25.912 25.8981 25.612 26.1381 25.372C26.3901 25.132 26.7321 25.012 27.1641 25.012C27.5721 25.012 27.9081 25.126 28.1721 25.354C28.4481 25.57 28.5861 25.876 28.5861 26.272C28.5861 26.608 28.4781 26.884 28.2621 27.1C28.0581 27.316 27.8061 27.466 27.5061 27.55C27.6021 27.634 27.7701 27.712 28.0101 27.784C28.2501 27.856 28.5081 27.892 28.7841 27.892C29.4561 27.892 29.9901 27.694 30.3861 27.298C30.7941 26.89 30.9981 26.32 30.9981 25.588C30.9981 25.024 30.8601 24.514 30.5841 24.058C30.3201 23.59 29.9001 23.302 29.3241 23.194C29.2041 23.254 29.0781 23.308 28.9461 23.356C28.8261 23.404 28.7001 23.428 28.5681 23.428C28.3041 23.428 28.1721 23.326 28.1721 23.122C28.1721 22.93 28.3101 22.834 28.5861 22.834C28.7061 22.834 28.8321 22.846 28.9641 22.87C29.0961 22.894 29.2221 22.918 29.3421 22.942C29.7981 22.726 30.1101 22.432 30.2781 22.06C30.4461 21.688 30.5301 21.274 30.5301 20.818C30.5301 20.23 30.4101 19.78 30.1701 19.468C29.9421 19.156 29.5941 19 29.1261 19C28.6581 19 28.2501 19.126 27.9021 19.378C27.5661 19.63 27.3021 19.978 27.1101 20.422C26.9181 20.854 26.8101 21.346 26.7861 21.898H26.3721C26.3721 21.25 26.3661 20.716 26.3541 20.296C26.3541 19.876 26.3481 19.534 26.3361 19.27C26.3241 18.994 26.3061 18.766 26.2821 18.586H26.6961C26.7321 18.85 26.7741 19.048 26.8221 19.18C26.8821 19.312 26.9721 19.378 27.0921 19.378C27.1641 19.378 27.2481 19.348 27.3441 19.288C27.4521 19.228 27.5721 19.156 27.7041 19.072C27.9921 18.868 28.3101 18.712 28.6581 18.604C29.0061 18.496 29.4321 18.442 29.9361 18.442ZM45.1688 18.712V19.09C44.7488 19.09 44.4488 19.18 44.2688 19.36C44.1008 19.54 44.0168 19.882 44.0168 20.386V26.326C44.0168 26.83 44.1008 27.172 44.2688 27.352C44.4488 27.532 44.7488 27.622 45.1688 27.622V28C44.9408 27.988 44.5928 27.976 44.1248 27.964C43.6688 27.94 43.2248 27.928 42.7928 27.928C42.3368 27.928 41.8868 27.94 41.4428 27.964C41.0108 27.976 40.6808 27.988 40.4528 28V27.622C40.8128 27.622 41.0648 27.532 41.2088 27.352C41.3528 27.172 41.4248 26.83 41.4248 26.326V20.386C41.4248 19.882 41.3528 19.54 41.2088 19.36C41.0648 19.18 40.8128 19.09 40.4528 19.09V18.712C40.6688 18.724 40.9868 18.742 41.4068 18.766C41.8268 18.778 42.2528 18.784 42.6848 18.784C43.1528 18.784 43.6208 18.778 44.0888 18.766C44.5688 18.742 44.9288 18.724 45.1688 18.712ZM39.2828 18.712V19.09C38.9348 19.09 38.6828 19.18 38.5268 19.36C38.3828 19.54 38.3108 19.882 38.3108 20.386V26.326C38.3108 26.83 38.3828 27.172 38.5268 27.352C38.6828 27.532 38.9348 27.622 39.2828 27.622V28C39.0668 27.988 38.7488 27.976 38.3288 27.964C37.9208 27.94 37.4948 27.928 37.0508 27.928C36.5948 27.928 36.1268 27.94 35.6468 27.964C35.1668 27.976 34.8068 27.988 34.5668 28V27.622C34.9868 27.622 35.2808 27.532 35.4488 27.352C35.6288 27.172 35.7188 26.83 35.7188 26.326V20.386C35.7188 19.882 35.6288 19.54 35.4488 19.36C35.2808 19.18 34.9868 19.09 34.5668 19.09V18.712C34.7948 18.724 35.1368 18.742 35.5928 18.766C36.0608 18.778 36.5108 18.784 36.9428 18.784C37.4108 18.784 37.8608 18.778 38.2928 18.766C38.7368 18.742 39.0668 18.724 39.2828 18.712ZM42.3608 23.032V23.392H37.2848V23.032H42.3608ZM48.5117 28.126C47.9717 28.126 47.5217 28.024 47.1617 27.82C46.8017 27.616 46.5377 27.346 46.3697 27.01C46.2017 26.662 46.1177 26.284 46.1177 25.876C46.1177 25.36 46.2317 24.94 46.4597 24.616C46.6997 24.292 47.0057 24.028 47.3777 23.824C47.7497 23.62 48.1397 23.452 48.5477 23.32C48.9677 23.188 49.3637 23.062 49.7357 22.942C50.1197 22.81 50.4257 22.66 50.6537 22.492C50.8937 22.312 51.0137 22.084 51.0137 21.808V20.404C51.0137 20.092 50.9597 19.816 50.8517 19.576C50.7557 19.324 50.5997 19.132 50.3837 19C50.1797 18.868 49.9097 18.802 49.5737 18.802C49.3337 18.802 49.0937 18.838 48.8537 18.91C48.6137 18.97 48.4157 19.078 48.2597 19.234C48.5957 19.354 48.8537 19.54 49.0337 19.792C49.2257 20.032 49.3217 20.308 49.3217 20.62C49.3217 21.028 49.1777 21.352 48.8897 21.592C48.6137 21.832 48.2837 21.952 47.8997 21.952C47.4677 21.952 47.1377 21.82 46.9097 21.556C46.6937 21.28 46.5857 20.95 46.5857 20.566C46.5857 20.218 46.6697 19.93 46.8377 19.702C47.0177 19.474 47.2637 19.258 47.5757 19.054C47.9117 18.862 48.3137 18.712 48.7817 18.604C49.2617 18.496 49.7777 18.442 50.3297 18.442C50.8817 18.442 51.3797 18.502 51.8237 18.622C52.2677 18.73 52.6397 18.934 52.9397 19.234C53.2157 19.51 53.3957 19.852 53.4797 20.26C53.5637 20.656 53.6057 21.16 53.6057 21.772V26.668C53.6057 26.968 53.6357 27.178 53.6957 27.298C53.7557 27.406 53.8577 27.46 54.0017 27.46C54.1097 27.46 54.2117 27.43 54.3077 27.37C54.4157 27.31 54.5297 27.238 54.6497 27.154L54.8297 27.46C54.5777 27.676 54.2837 27.844 53.9477 27.964C53.6237 28.072 53.2577 28.126 52.8497 28.126C52.4057 28.126 52.0517 28.066 51.7877 27.946C51.5237 27.814 51.3317 27.64 51.2117 27.424C51.1037 27.208 51.0497 26.956 51.0497 26.668C50.7617 27.124 50.4137 27.484 50.0057 27.748C49.5977 28 49.0997 28.126 48.5117 28.126ZM49.7897 26.974C50.0297 26.974 50.2457 26.92 50.4377 26.812C50.6417 26.692 50.8337 26.5 51.0137 26.236V22.546C50.9057 22.726 50.7557 22.888 50.5637 23.032C50.3717 23.176 50.1677 23.326 49.9517 23.482C49.7357 23.626 49.5257 23.788 49.3217 23.968C49.1297 24.148 48.9737 24.37 48.8537 24.634C48.7337 24.898 48.6737 25.216 48.6737 25.588C48.6737 26.056 48.7757 26.404 48.9797 26.632C49.1837 26.86 49.4537 26.974 49.7897 26.974ZM64.9381 18.712C64.8901 19.216 64.8541 19.702 64.8301 20.17C64.8181 20.626 64.8121 20.98 64.8121 21.232C64.8121 21.46 64.8181 21.688 64.8301 21.916C64.8421 22.132 64.8541 22.312 64.8661 22.456H64.4521C64.3081 21.592 64.1101 20.914 63.8581 20.422C63.6061 19.93 63.3241 19.582 63.0121 19.378C62.7121 19.174 62.3881 19.072 62.0401 19.072H61.4461V26.146C61.4461 26.734 61.5961 27.13 61.8961 27.334C62.2081 27.526 62.6221 27.622 63.1381 27.622V28C62.8381 27.988 62.4181 27.976 61.8781 27.964C61.3501 27.94 60.7801 27.928 60.1681 27.928C59.5681 27.928 58.9921 27.94 58.4401 27.964C57.9001 27.976 57.4741 27.988 57.1621 28V27.622C57.7021 27.622 58.1161 27.544 58.4041 27.388C58.7041 27.22 58.8541 26.842 58.8541 26.254V19.072H58.1881C57.8641 19.072 57.5521 19.174 57.2521 19.378C56.9521 19.582 56.6821 19.93 56.4421 20.422C56.2141 20.914 56.0221 21.592 55.8661 22.456H55.4521C55.4761 22.312 55.4881 22.132 55.4881 21.916C55.5001 21.7 55.5061 21.472 55.5061 21.232C55.5061 20.98 55.4941 20.626 55.4701 20.17C55.4581 19.702 55.4281 19.216 55.3801 18.712H57.2881C57.6241 18.712 58.0501 18.724 58.5661 18.748C59.0821 18.76 59.6041 18.766 60.1321 18.766C60.6841 18.766 61.2181 18.76 61.7341 18.748C62.2621 18.724 62.6941 18.712 63.0301 18.712H64.9381ZM70.6982 18.712V19.09C70.2783 19.09 69.9783 19.18 69.7983 19.36C69.6303 19.54 69.5463 19.882 69.5463 20.386V26.704C69.5463 27.064 69.6123 27.31 69.7443 27.442C69.8763 27.562 70.1223 27.622 70.4823 27.622C71.0103 27.622 71.4123 27.514 71.6883 27.298C71.9763 27.082 72.1743 26.8 72.2823 26.452C72.3903 26.092 72.4443 25.714 72.4443 25.318C72.4443 24.478 72.2463 23.872 71.8503 23.5C71.4663 23.128 70.8003 22.942 69.8523 22.942C69.6243 22.942 69.3843 22.948 69.1323 22.96C68.8803 22.972 68.6583 22.978 68.4663 22.978L68.4303 22.618C68.9343 22.618 69.3963 22.612 69.8163 22.6C70.2483 22.588 70.6443 22.582 71.0043 22.582C72.4563 22.582 73.5003 22.828 74.1363 23.32C74.7843 23.812 75.1083 24.424 75.1083 25.156C75.1083 25.6 74.9643 26.044 74.6763 26.488C74.4003 26.92 73.9383 27.28 73.2903 27.568C72.6543 27.856 71.7903 28 70.6982 28C70.3382 28 69.9603 27.988 69.5643 27.964C69.1683 27.94 68.7303 27.928 68.2503 27.928C67.8303 27.928 67.3863 27.94 66.9183 27.964C66.4623 27.976 66.1263 27.988 65.9103 28V27.622C66.2943 27.622 66.5643 27.532 66.7203 27.352C66.8763 27.172 66.9543 26.83 66.9543 26.326V20.386C66.9543 19.882 66.8823 19.54 66.7383 19.36C66.5943 19.18 66.3423 19.09 65.9823 19.09V18.712C66.1863 18.724 66.4983 18.742 66.9183 18.766C67.3383 18.778 67.7703 18.784 68.2143 18.784C68.6703 18.784 69.1383 18.778 69.6183 18.766C70.0983 18.742 70.4583 18.724 70.6982 18.712ZM89.3101 13.87L89.5801 13.924C89.4601 14.56 89.2921 15.088 89.0761 15.508C88.8721 15.916 88.6381 16.222 88.3741 16.426C88.1341 16.63 87.8401 16.786 87.4921 16.894C87.1441 16.99 86.7421 17.05 86.2861 17.074C86.1061 17.086 85.8601 17.104 85.5481 17.128C85.2481 17.14 84.8761 17.17 84.4321 17.218C83.8201 17.29 83.3161 17.41 82.9201 17.578C82.5241 17.734 82.2001 17.974 81.9481 18.298C81.7081 18.622 81.5101 19.066 81.3541 19.63C81.2101 20.194 81.0841 20.914 80.9761 21.79L82.3441 22.114L80.7781 22.852C80.8501 21.904 81.0901 21.142 81.4981 20.566C81.9181 19.99 82.4521 19.57 83.1001 19.306C83.7481 19.042 84.4561 18.91 85.2241 18.91C86.1001 18.91 86.8441 19.078 87.4561 19.414C88.0801 19.75 88.5601 20.254 88.8961 20.926C89.2321 21.586 89.4001 22.426 89.4001 23.446C89.4001 24.526 89.2081 25.426 88.8241 26.146C88.4401 26.854 87.9061 27.382 87.2221 27.73C86.5501 28.078 85.7581 28.252 84.8461 28.252C84.0421 28.252 83.3701 28.126 82.8301 27.874C82.2901 27.622 81.8581 27.256 81.5341 26.776C81.2101 26.296 80.9701 25.696 80.8141 24.976C80.6701 24.256 80.5981 23.428 80.5981 22.492C80.5981 22.168 80.6101 21.784 80.6341 21.34C80.6581 20.896 80.7001 20.428 80.7601 19.936C80.8321 19.444 80.9341 18.952 81.0661 18.46C81.1981 17.968 81.3661 17.512 81.5701 17.092C81.7741 16.672 82.0321 16.318 82.3441 16.03C82.6201 15.766 82.9441 15.562 83.3161 15.418C83.6881 15.274 84.1081 15.172 84.5761 15.112C85.0921 15.052 85.5661 15.016 85.9981 15.004C86.4421 14.98 86.8141 14.962 87.1141 14.95C87.7261 14.926 88.1881 14.83 88.5001 14.662C88.8241 14.494 89.0941 14.23 89.3101 13.87ZM85.0441 19.27C84.7321 19.27 84.4441 19.402 84.1801 19.666C83.9161 19.93 83.7001 20.368 83.5321 20.98C83.3761 21.592 83.2981 22.414 83.2981 23.446C83.2981 24.478 83.3761 25.324 83.5321 25.984C83.7001 26.644 83.9161 27.13 84.1801 27.442C84.4441 27.742 84.7261 27.892 85.0261 27.892C85.3261 27.892 85.5781 27.778 85.7821 27.55C85.9981 27.322 86.1661 27.004 86.2861 26.596C86.4181 26.176 86.5141 25.696 86.5741 25.156C86.6461 24.604 86.6821 24.01 86.6821 23.374C86.6821 21.886 86.5261 20.83 86.2141 20.206C85.9021 19.582 85.5121 19.27 85.0441 19.27ZM95.1444 18.442C96.0204 18.442 96.7884 18.604 97.4484 18.928C98.1084 19.252 98.6244 19.774 98.9964 20.494C99.3684 21.214 99.5544 22.168 99.5544 23.356C99.5544 24.544 99.3684 25.498 98.9964 26.218C98.6244 26.926 98.1084 27.442 97.4484 27.766C96.7884 28.09 96.0204 28.252 95.1444 28.252C94.2924 28.252 93.5304 28.09 92.8584 27.766C92.1984 27.442 91.6764 26.926 91.2924 26.218C90.9204 25.498 90.7344 24.544 90.7344 23.356C90.7344 22.168 90.9204 21.214 91.2924 20.494C91.6764 19.774 92.1984 19.252 92.8584 18.928C93.5304 18.604 94.2924 18.442 95.1444 18.442ZM95.1444 18.802C94.6644 18.802 94.2624 19.162 93.9384 19.882C93.6144 20.59 93.4524 21.748 93.4524 23.356C93.4524 24.964 93.6144 26.122 93.9384 26.83C94.2624 27.538 94.6644 27.892 95.1444 27.892C95.6364 27.892 96.0384 27.538 96.3504 26.83C96.6744 26.122 96.8364 24.964 96.8364 23.356C96.8364 21.748 96.6744 20.59 96.3504 19.882C96.0384 19.162 95.6364 18.802 95.1444 18.802ZM110.176 18.712V19.09C109.792 19.09 109.522 19.18 109.366 19.36C109.21 19.54 109.132 19.882 109.132 20.386V26.326C109.132 26.83 109.21 27.172 109.366 27.352C109.534 27.532 109.804 27.622 110.176 27.622V28C109.96 27.988 109.642 27.976 109.222 27.964C108.802 27.94 108.352 27.928 107.872 27.928C107.392 27.928 106.9 27.94 106.396 27.964C105.892 27.976 105.508 27.988 105.244 28V27.622C105.688 27.622 106.012 27.532 106.216 27.352C106.432 27.172 106.54 26.83 106.54 26.326V20.386C106.54 19.882 106.468 19.54 106.324 19.36C106.18 19.18 105.928 19.09 105.568 19.09H105.406C105.082 19.09 104.878 19.186 104.794 19.378C104.722 19.558 104.662 19.894 104.614 20.386C104.518 21.502 104.398 22.576 104.254 23.608C104.122 24.64 103.9 25.564 103.588 26.38C103.444 26.74 103.27 27.064 103.066 27.352C102.874 27.628 102.646 27.844 102.382 28C102.13 28.168 101.836 28.252 101.5 28.252C101.236 28.252 100.972 28.198 100.708 28.09C100.444 27.982 100.222 27.808 100.042 27.568C99.8623 27.316 99.7723 26.998 99.7723 26.614C99.7723 26.158 99.9043 25.804 100.168 25.552C100.444 25.288 100.786 25.156 101.194 25.156C101.614 25.156 101.938 25.282 102.166 25.534C102.394 25.786 102.508 26.092 102.508 26.452C102.508 26.824 102.4 27.124 102.184 27.352C101.968 27.58 101.692 27.766 101.356 27.91C101.38 27.922 101.416 27.934 101.464 27.946C101.512 27.946 101.554 27.946 101.59 27.946C101.878 27.946 102.124 27.862 102.328 27.694C102.532 27.526 102.712 27.316 102.868 27.064C103.024 26.8 103.156 26.542 103.264 26.29C103.468 25.774 103.63 25.192 103.75 24.544C103.882 23.884 103.99 23.194 104.074 22.474C104.158 21.754 104.224 21.058 104.272 20.386C104.308 19.882 104.2 19.54 103.948 19.36C103.708 19.18 103.342 19.09 102.85 19.09V18.712C102.946 18.724 103.096 18.736 103.3 18.748C103.516 18.748 103.744 18.748 103.984 18.748C104.248 18.748 104.5 18.748 104.74 18.748C104.98 18.736 105.286 18.73 105.658 18.73C105.994 18.73 106.282 18.736 106.522 18.748C106.774 18.748 107.008 18.754 107.224 18.766C107.452 18.778 107.698 18.784 107.962 18.784C108.226 18.784 108.496 18.778 108.772 18.766C109.06 18.754 109.33 18.742 109.582 18.73C109.846 18.718 110.044 18.712 110.176 18.712ZM115.979 18.712V19.09C115.56 19.09 115.26 19.18 115.08 19.36C114.912 19.54 114.828 19.882 114.828 20.386V26.704C114.828 27.064 114.894 27.31 115.026 27.442C115.158 27.562 115.404 27.622 115.764 27.622C116.292 27.622 116.694 27.514 116.97 27.298C117.258 27.082 117.456 26.8 117.564 26.452C117.672 26.092 117.726 25.714 117.726 25.318C117.726 24.478 117.528 23.872 117.132 23.5C116.748 23.128 116.082 22.942 115.134 22.942C114.906 22.942 114.666 22.948 114.414 22.96C114.162 22.972 113.94 22.978 113.748 22.978L113.712 22.618C114.216 22.618 114.678 22.612 115.098 22.6C115.53 22.588 115.926 22.582 116.286 22.582C117.738 22.582 118.782 22.828 119.418 23.32C120.066 23.812 120.39 24.424 120.39 25.156C120.39 25.6 120.246 26.044 119.958 26.488C119.682 26.92 119.22 27.28 118.572 27.568C117.936 27.856 117.072 28 115.979 28C115.619 28 115.242 27.988 114.846 27.964C114.45 27.94 114.012 27.928 113.532 27.928C113.112 27.928 112.668 27.94 112.2 27.964C111.744 27.976 111.408 27.988 111.192 28V27.622C111.576 27.622 111.846 27.532 112.002 27.352C112.158 27.172 112.236 26.83 112.236 26.326V20.386C112.236 19.882 112.164 19.54 112.02 19.36C111.876 19.18 111.624 19.09 111.264 19.09V18.712C111.468 18.724 111.78 18.742 112.2 18.766C112.62 18.778 113.052 18.784 113.496 18.784C113.952 18.784 114.42 18.778 114.9 18.766C115.38 18.742 115.74 18.724 115.979 18.712ZM136.889 18.712V19.09C136.469 19.09 136.169 19.18 135.989 19.36C135.821 19.54 135.737 19.882 135.737 20.386V26.326C135.737 26.83 135.821 27.172 135.989 27.352C136.169 27.532 136.469 27.622 136.889 27.622V28C136.745 27.988 136.541 27.982 136.277 27.982C136.013 27.97 135.731 27.958 135.431 27.946C135.131 27.934 134.843 27.928 134.567 27.928C134.099 27.928 133.655 27.94 133.235 27.964C132.815 27.988 132.329 28 131.777 28C131.225 28 130.733 27.988 130.301 27.964C129.869 27.94 129.455 27.928 129.059 27.928C128.675 27.928 128.267 27.94 127.835 27.964C127.415 27.988 126.923 28 126.359 28C125.999 28 125.669 27.994 125.369 27.982C125.069 27.97 124.775 27.958 124.487 27.946C124.211 27.934 123.905 27.928 123.569 27.928C123.293 27.928 122.993 27.934 122.669 27.946C122.357 27.958 122.063 27.97 121.787 27.982C121.523 27.982 121.307 27.988 121.139 28V27.622C121.559 27.622 121.853 27.532 122.021 27.352C122.201 27.172 122.291 26.83 122.291 26.326V20.386C122.291 19.882 122.201 19.54 122.021 19.36C121.853 19.18 121.559 19.09 121.139 19.09V18.712C121.367 18.724 121.709 18.742 122.165 18.766C122.633 18.778 123.083 18.784 123.515 18.784C123.971 18.784 124.409 18.778 124.829 18.766C125.261 18.742 125.579 18.724 125.783 18.712V19.09C125.459 19.09 125.225 19.18 125.081 19.36C124.949 19.54 124.883 19.882 124.883 20.386V26.326C124.883 26.83 124.961 27.172 125.117 27.352C125.273 27.532 125.537 27.622 125.909 27.622H126.755C127.115 27.622 127.367 27.532 127.511 27.352C127.655 27.172 127.727 26.83 127.727 26.326V20.386C127.727 19.882 127.661 19.54 127.529 19.36C127.397 19.18 127.163 19.09 126.827 19.09V18.712C127.031 18.724 127.337 18.742 127.745 18.766C128.153 18.778 128.561 18.784 128.969 18.784C129.389 18.784 129.815 18.778 130.247 18.766C130.679 18.742 131.003 18.724 131.219 18.712V19.09C130.883 19.09 130.649 19.18 130.517 19.36C130.385 19.54 130.319 19.882 130.319 20.386V26.326C130.319 26.83 130.391 27.172 130.535 27.352C130.679 27.532 130.931 27.622 131.291 27.622H132.173C132.533 27.622 132.785 27.532 132.929 27.352C133.073 27.172 133.145 26.83 133.145 26.326V20.386C133.145 19.882 133.079 19.54 132.947 19.36C132.815 19.18 132.581 19.09 132.245 19.09V18.712C132.449 18.724 132.755 18.742 133.163 18.766C133.571 18.778 133.991 18.784 134.423 18.784C134.867 18.784 135.329 18.778 135.809 18.766C136.289 18.742 136.649 18.724 136.889 18.712ZM142.394 18.442C143.45 18.442 144.278 18.754 144.878 19.378C145.478 20.002 145.778 21.022 145.778 22.438H139.856L139.82 22.096H143.51C143.522 21.508 143.486 20.968 143.402 20.476C143.318 19.972 143.186 19.57 143.006 19.27C142.826 18.97 142.586 18.82 142.286 18.82C141.866 18.82 141.506 19.084 141.206 19.612C140.918 20.14 140.744 21.016 140.684 22.24L140.738 22.348C140.726 22.492 140.714 22.642 140.702 22.798C140.702 22.954 140.702 23.116 140.702 23.284C140.702 24.112 140.816 24.784 141.044 25.3C141.284 25.816 141.584 26.194 141.944 26.434C142.304 26.662 142.67 26.776 143.042 26.776C143.294 26.776 143.552 26.74 143.816 26.668C144.092 26.584 144.368 26.44 144.644 26.236C144.92 26.02 145.178 25.72 145.418 25.336L145.742 25.444C145.598 25.9 145.37 26.344 145.058 26.776C144.746 27.208 144.35 27.562 143.87 27.838C143.39 28.114 142.814 28.252 142.142 28.252C141.326 28.252 140.606 28.078 139.982 27.73C139.358 27.382 138.866 26.854 138.506 26.146C138.158 25.438 137.984 24.538 137.984 23.446C137.984 22.33 138.17 21.4 138.542 20.656C138.926 19.912 139.448 19.36 140.108 19C140.78 18.628 141.542 18.442 142.394 18.442Z" fill="black"/>
<path d="M237.207 21.2071C237.598 20.8166 237.598 20.1834 237.207 19.7929L230.843 13.4289C230.453 13.0384 229.819 13.0384 229.429 13.4289C229.038 13.8195 229.038 14.4526 229.429 14.8431L235.086 20.5L229.429 26.1569C229.038 26.5474 229.038 27.1805 229.429 27.5711C229.819 27.9616 230.453 27.9616 230.843 27.5711L237.207 21.2071ZM184.5 21.5L236.5 21.5L236.5 19.5L184.5 19.5L184.5 21.5Z" fill="black"/>
<rect x="1" y="1" width="249" height="43" rx="21.5" stroke="#53A3EA" stroke-width="2"/>
</svg>
