<svg width="251" height="45" viewBox="0 0 251 45" fill="none" xmlns="http://www.w3.org/2000/svg">
<path d="M22.526 17.004C23.342 17.004 24.056 17.112 24.668 17.328C25.28 17.544 25.76 17.856 26.108 18.264C26.456 18.672 26.63 19.158 26.63 19.722C26.63 20.226 26.498 20.676 26.234 21.072C25.97 21.456 25.628 21.798 25.208 22.098C24.788 22.386 24.332 22.626 23.84 22.818C23.36 23.01 22.892 23.154 22.436 23.25C23.012 23.262 23.588 23.334 24.164 23.466C24.74 23.598 25.262 23.802 25.73 24.078C26.21 24.354 26.594 24.702 26.882 25.122C27.17 25.53 27.314 26.016 27.314 26.58C27.314 27.168 27.152 27.696 26.828 28.164C26.516 28.62 26.09 29.004 25.55 29.316C25.022 29.616 24.422 29.844 23.75 30C23.078 30.168 22.388 30.252 21.68 30.252C21.068 30.252 20.474 30.186 19.898 30.054C19.334 29.922 18.848 29.706 18.44 29.406C18.176 29.214 17.942 28.98 17.738 28.704C17.546 28.416 17.45 28.098 17.45 27.75C17.45 27.294 17.6 26.934 17.9 26.67C18.2 26.406 18.56 26.274 18.98 26.274C19.4 26.274 19.742 26.394 20.006 26.634C20.27 26.874 20.402 27.234 20.402 27.714C20.402 28.086 20.276 28.404 20.024 28.668C19.784 28.932 19.448 29.118 19.016 29.226C19.244 29.406 19.562 29.556 19.97 29.676C20.378 29.796 20.852 29.856 21.392 29.856C22.388 29.856 23.162 29.58 23.714 29.028C24.278 28.464 24.56 27.66 24.56 26.616C24.56 26.064 24.476 25.548 24.308 25.068C24.14 24.588 23.876 24.198 23.516 23.898C23.156 23.598 22.7 23.436 22.148 23.412C22.028 23.472 21.902 23.526 21.77 23.574C21.65 23.622 21.518 23.646 21.374 23.646C21.278 23.646 21.188 23.622 21.104 23.574C21.032 23.526 20.996 23.448 20.996 23.34C20.996 23.148 21.134 23.052 21.41 23.052C21.53 23.052 21.656 23.064 21.788 23.088C21.92 23.112 22.046 23.136 22.166 23.16C22.61 22.98 22.952 22.734 23.192 22.422C23.444 22.098 23.618 21.732 23.714 21.324C23.81 20.916 23.858 20.49 23.858 20.046C23.858 19.158 23.684 18.516 23.336 18.12C23 17.724 22.508 17.526 21.86 17.526C21.176 17.526 20.612 17.706 20.168 18.066C19.724 18.414 19.382 18.882 19.142 19.47C18.914 20.046 18.776 20.682 18.728 21.378H18.314C18.314 20.622 18.308 19.986 18.296 19.47C18.296 18.954 18.29 18.516 18.278 18.156C18.278 17.796 18.266 17.478 18.242 17.202H18.656C18.692 17.526 18.74 17.772 18.8 17.94C18.86 18.096 18.962 18.174 19.106 18.174C19.202 18.174 19.346 18.108 19.538 17.976C19.79 17.808 20.042 17.652 20.294 17.508C20.546 17.352 20.846 17.232 21.194 17.148C21.554 17.052 21.998 17.004 22.526 17.004ZM30.7441 30.126C30.2041 30.126 29.7541 30.024 29.3941 29.82C29.0341 29.616 28.7701 29.346 28.6021 29.01C28.4341 28.662 28.3501 28.284 28.3501 27.876C28.3501 27.36 28.4641 26.94 28.6921 26.616C28.9321 26.292 29.2381 26.028 29.6101 25.824C29.9821 25.62 30.3721 25.452 30.7801 25.32C31.2001 25.188 31.5961 25.062 31.9681 24.942C32.3521 24.81 32.6581 24.66 32.8861 24.492C33.1261 24.312 33.2461 24.084 33.2461 23.808V22.404C33.2461 22.092 33.1921 21.816 33.0841 21.576C32.9881 21.324 32.8321 21.132 32.6161 21C32.4121 20.868 32.1421 20.802 31.8061 20.802C31.5661 20.802 31.3261 20.838 31.0861 20.91C30.8461 20.97 30.6481 21.078 30.4921 21.234C30.8281 21.354 31.0861 21.54 31.2661 21.792C31.4581 22.032 31.5541 22.308 31.5541 22.62C31.5541 23.028 31.4101 23.352 31.1221 23.592C30.8461 23.832 30.5161 23.952 30.1321 23.952C29.7001 23.952 29.3701 23.82 29.1421 23.556C28.9261 23.28 28.8181 22.95 28.8181 22.566C28.8181 22.218 28.9021 21.93 29.0701 21.702C29.2501 21.474 29.4961 21.258 29.8081 21.054C30.1441 20.862 30.5461 20.712 31.0141 20.604C31.4941 20.496 32.0101 20.442 32.5621 20.442C33.1141 20.442 33.6121 20.502 34.0561 20.622C34.5001 20.73 34.8721 20.934 35.1721 21.234C35.4481 21.51 35.6281 21.852 35.7121 22.26C35.7961 22.656 35.8381 23.16 35.8381 23.772V28.668C35.8381 28.968 35.8681 29.178 35.9281 29.298C35.9881 29.406 36.0901 29.46 36.2341 29.46C36.3421 29.46 36.4441 29.43 36.5401 29.37C36.6481 29.31 36.7621 29.238 36.8821 29.154L37.0621 29.46C36.8101 29.676 36.5161 29.844 36.1801 29.964C35.8561 30.072 35.4901 30.126 35.0821 30.126C34.6381 30.126 34.2841 30.066 34.0201 29.946C33.7561 29.814 33.5641 29.64 33.4441 29.424C33.3361 29.208 33.2821 28.956 33.2821 28.668C32.9941 29.124 32.6461 29.484 32.2381 29.748C31.8301 30 31.3321 30.126 30.7441 30.126ZM32.0221 28.974C32.2621 28.974 32.4781 28.92 32.6701 28.812C32.8741 28.692 33.0661 28.5 33.2461 28.236V24.546C33.1381 24.726 32.9881 24.888 32.7961 25.032C32.6041 25.176 32.4001 25.326 32.1841 25.482C31.9681 25.626 31.7581 25.788 31.5541 25.968C31.3621 26.148 31.2061 26.37 31.0861 26.634C30.9661 26.898 30.9061 27.216 30.9061 27.588C30.9061 28.056 31.0081 28.404 31.2121 28.632C31.4161 28.86 31.6861 28.974 32.0221 28.974ZM46.7925 15.87L47.0625 15.924C46.9425 16.56 46.7745 17.088 46.5585 17.508C46.3545 17.916 46.1205 18.222 45.8565 18.426C45.6165 18.63 45.3225 18.786 44.9745 18.894C44.6265 18.99 44.2245 19.05 43.7685 19.074C43.5885 19.086 43.3425 19.104 43.0305 19.128C42.7305 19.14 42.3585 19.17 41.9145 19.218C41.3025 19.29 40.7985 19.41 40.4025 19.578C40.0065 19.734 39.6825 19.974 39.4305 20.298C39.1905 20.622 38.9925 21.066 38.8365 21.63C38.6925 22.194 38.5665 22.914 38.4585 23.79L39.8265 24.114L38.2605 24.852C38.3325 23.904 38.5725 23.142 38.9805 22.566C39.4005 21.99 39.9345 21.57 40.5825 21.306C41.2305 21.042 41.9385 20.91 42.7065 20.91C43.5825 20.91 44.3265 21.078 44.9385 21.414C45.5625 21.75 46.0425 22.254 46.3785 22.926C46.7145 23.586 46.8825 24.426 46.8825 25.446C46.8825 26.526 46.6905 27.426 46.3065 28.146C45.9225 28.854 45.3885 29.382 44.7045 29.73C44.0325 30.078 43.2405 30.252 42.3285 30.252C41.5245 30.252 40.8525 30.126 40.3125 29.874C39.7725 29.622 39.3405 29.256 39.0165 28.776C38.6925 28.296 38.4525 27.696 38.2965 26.976C38.1525 26.256 38.0805 25.428 38.0805 24.492C38.0805 24.168 38.0925 23.784 38.1165 23.34C38.1405 22.896 38.1825 22.428 38.2425 21.936C38.3145 21.444 38.4165 20.952 38.5485 20.46C38.6805 19.968 38.8485 19.512 39.0525 19.092C39.2565 18.672 39.5145 18.318 39.8265 18.03C40.1025 17.766 40.4265 17.562 40.7985 17.418C41.1705 17.274 41.5905 17.172 42.0585 17.112C42.5745 17.052 43.0485 17.016 43.4805 17.004C43.9245 16.98 44.2965 16.962 44.5965 16.95C45.2085 16.926 45.6705 16.83 45.9825 16.662C46.3065 16.494 46.5765 16.23 46.7925 15.87ZM42.5265 21.27C42.2145 21.27 41.9265 21.402 41.6625 21.666C41.3985 21.93 41.1825 22.368 41.0145 22.98C40.8585 23.592 40.7805 24.414 40.7805 25.446C40.7805 26.478 40.8585 27.324 41.0145 27.984C41.1825 28.644 41.3985 29.13 41.6625 29.442C41.9265 29.742 42.2085 29.892 42.5085 29.892C42.8085 29.892 43.0605 29.778 43.2645 29.55C43.4805 29.322 43.6485 29.004 43.7685 28.596C43.9005 28.176 43.9965 27.696 44.0565 27.156C44.1285 26.604 44.1645 26.01 44.1645 25.374C44.1645 23.886 44.0085 22.83 43.6965 22.206C43.3845 21.582 42.9945 21.27 42.5265 21.27ZM51.6548 20.496V31.476C51.6548 32.04 51.7988 32.412 52.0868 32.592C52.3748 32.784 52.7708 32.88 53.2748 32.88V33.258C52.9628 33.246 52.5308 33.228 51.9788 33.204C51.4388 33.192 50.8628 33.186 50.2508 33.186C49.8068 33.186 49.3688 33.192 48.9368 33.204C48.5168 33.228 48.1988 33.246 47.9828 33.258V32.88C48.3788 32.88 48.6548 32.796 48.8108 32.628C48.9788 32.46 49.0628 32.136 49.0628 31.656V22.656C49.0628 22.116 48.9788 21.72 48.8108 21.468C48.6428 21.204 48.3428 21.072 47.9108 21.072V20.694C48.2948 20.73 48.6668 20.748 49.0268 20.748C49.5188 20.748 49.9868 20.73 50.4308 20.694C50.8748 20.646 51.2828 20.58 51.6548 20.496ZM54.4448 20.442C55.0568 20.442 55.6028 20.61 56.0828 20.946C56.5628 21.27 56.9468 21.768 57.2348 22.44C57.5228 23.1 57.6668 23.928 57.6668 24.924C57.6668 25.8 57.5648 26.568 57.3608 27.228C57.1688 27.888 56.8868 28.446 56.5148 28.902C56.1548 29.346 55.7168 29.682 55.2008 29.91C54.6968 30.138 54.1268 30.252 53.4908 30.252C53.0228 30.252 52.5968 30.168 52.2128 30C51.8288 29.844 51.5348 29.616 51.3308 29.316L51.5108 29.082C51.6308 29.298 51.7988 29.466 52.0148 29.586C52.2428 29.706 52.5008 29.766 52.7888 29.766C53.3288 29.766 53.7548 29.586 54.0668 29.226C54.3788 28.854 54.6008 28.338 54.7328 27.678C54.8768 27.006 54.9488 26.208 54.9488 25.284C54.9488 24.252 54.8828 23.442 54.7508 22.854C54.6188 22.266 54.4388 21.846 54.2108 21.594C53.9828 21.342 53.7068 21.216 53.3828 21.216C52.9508 21.216 52.5548 21.384 52.1948 21.72C51.8468 22.056 51.6488 22.536 51.6008 23.16L51.5108 22.53C51.7268 21.846 52.0928 21.33 52.6088 20.982C53.1368 20.622 53.7488 20.442 54.4448 20.442ZM63.4198 20.442C64.2958 20.442 65.0638 20.604 65.7238 20.928C66.3838 21.252 66.8998 21.774 67.2718 22.494C67.6438 23.214 67.8298 24.168 67.8298 25.356C67.8298 26.544 67.6438 27.498 67.2718 28.218C66.8998 28.926 66.3838 29.442 65.7238 29.766C65.0638 30.09 64.2958 30.252 63.4198 30.252C62.5678 30.252 61.8058 30.09 61.1338 29.766C60.4738 29.442 59.9518 28.926 59.5678 28.218C59.1958 27.498 59.0098 26.544 59.0098 25.356C59.0098 24.168 59.1958 23.214 59.5678 22.494C59.9518 21.774 60.4738 21.252 61.1338 20.928C61.8058 20.604 62.5678 20.442 63.4198 20.442ZM63.4198 20.802C62.9398 20.802 62.5378 21.162 62.2138 21.882C61.8898 22.59 61.7278 23.748 61.7278 25.356C61.7278 26.964 61.8898 28.122 62.2138 28.83C62.5378 29.538 62.9398 29.892 63.4198 29.892C63.9118 29.892 64.3138 29.538 64.6258 28.83C64.9498 28.122 65.1118 26.964 65.1118 25.356C65.1118 23.748 64.9498 22.59 64.6258 21.882C64.3138 21.162 63.9118 20.802 63.4198 20.802ZM79.5555 20.712V21.09C79.1355 21.09 78.8355 21.18 78.6555 21.36C78.4875 21.54 78.4035 21.882 78.4035 22.386V28.326C78.4035 28.83 78.4875 29.172 78.6555 29.352C78.8355 29.532 79.1355 29.622 79.5555 29.622V30C79.3395 29.988 78.9975 29.976 78.5295 29.964C78.0735 29.94 77.6235 29.928 77.1795 29.928C76.7235 29.928 76.2735 29.94 75.8295 29.964C75.3975 29.976 75.0675 29.988 74.8395 30V29.622C75.1995 29.622 75.4515 29.532 75.5955 29.352C75.7395 29.172 75.8115 28.83 75.8115 28.326V22.386C75.8115 21.882 75.7395 21.54 75.5955 21.36C75.4515 21.18 75.1995 21.09 74.8395 21.09V20.712C75.0555 20.724 75.3735 20.742 75.7935 20.766C76.2135 20.778 76.6395 20.784 77.0715 20.784C77.5395 20.784 78.0075 20.778 78.4755 20.766C78.9555 20.742 79.3155 20.724 79.5555 20.712ZM73.6695 20.712V21.09C73.3215 21.09 73.0695 21.18 72.9135 21.36C72.7695 21.54 72.6975 21.882 72.6975 22.386V28.326C72.6975 28.83 72.7695 29.172 72.9135 29.352C73.0695 29.532 73.3215 29.622 73.6695 29.622V30C73.4535 29.988 73.1355 29.976 72.7155 29.964C72.3075 29.94 71.8815 29.928 71.4375 29.928C70.9815 29.928 70.5135 29.94 70.0335 29.964C69.5535 29.976 69.1935 29.988 68.9535 30V29.622C69.3735 29.622 69.6675 29.532 69.8355 29.352C70.0155 29.172 70.1055 28.83 70.1055 28.326V22.386C70.1055 21.882 70.0155 21.54 69.8355 21.36C69.6675 21.18 69.3735 21.09 68.9535 21.09V20.712C69.1815 20.724 69.5235 20.742 69.9795 20.766C70.4475 20.778 70.8975 20.784 71.3295 20.784C71.7975 20.784 72.2475 20.778 72.6795 20.766C73.1235 20.742 73.4535 20.724 73.6695 20.712ZM76.7475 25.032V25.392H71.6715V25.032H76.7475ZM91.3404 20.712V21.09C90.9204 21.09 90.6204 21.18 90.4404 21.36C90.2724 21.54 90.1884 21.882 90.1884 22.386V28.326C90.1884 28.83 90.2724 29.172 90.4404 29.352C90.6204 29.532 90.9204 29.622 91.3404 29.622V30C91.1244 29.988 90.7824 29.976 90.3144 29.964C89.8584 29.94 89.4084 29.928 88.9644 29.928C88.5084 29.928 88.0584 29.94 87.6144 29.964C87.1824 29.976 86.8524 29.988 86.6244 30V29.622C86.9844 29.622 87.2364 29.532 87.3804 29.352C87.5244 29.172 87.5964 28.83 87.5964 28.326V22.386C87.5964 21.882 87.5244 21.54 87.3804 21.36C87.2364 21.18 86.9844 21.09 86.6244 21.09V20.712C86.8404 20.724 87.1584 20.742 87.5784 20.766C87.9984 20.778 88.4244 20.784 88.8564 20.784C89.3244 20.784 89.7924 20.778 90.2604 20.766C90.7404 20.742 91.1004 20.724 91.3404 20.712ZM85.1304 20.712V21.09C84.7824 21.09 84.5304 21.18 84.3744 21.36C84.2304 21.54 84.1584 21.882 84.1584 22.386V28.326C84.1584 28.83 84.2304 29.172 84.3744 29.352C84.5304 29.532 84.7824 29.622 85.1304 29.622V30C84.9144 29.988 84.5964 29.976 84.1764 29.964C83.7684 29.94 83.3424 29.928 82.8984 29.928C82.4424 29.928 81.9744 29.94 81.4944 29.964C81.0144 29.976 80.6544 29.988 80.4144 30V29.622C80.8344 29.622 81.1284 29.532 81.2964 29.352C81.4764 29.172 81.5664 28.83 81.5664 28.326V22.386C81.5664 21.882 81.4764 21.54 81.2964 21.36C81.1284 21.18 80.8344 21.09 80.4144 21.09V20.712C80.6424 20.724 80.9844 20.742 81.4404 20.766C81.9084 20.778 82.3584 20.784 82.7904 20.784C83.2584 20.784 83.7084 20.778 84.1404 20.766C84.5844 20.742 84.9144 20.724 85.1304 20.712ZM87.8124 21.81L88.1184 21.99L83.8344 29.244L83.5284 29.064L87.8124 21.81ZM95.8813 20.496V31.476C95.8813 32.04 96.0253 32.412 96.3133 32.592C96.6013 32.784 96.9973 32.88 97.5013 32.88V33.258C97.1893 33.246 96.7573 33.228 96.2053 33.204C95.6653 33.192 95.0893 33.186 94.4773 33.186C94.0333 33.186 93.5953 33.192 93.1633 33.204C92.7433 33.228 92.4253 33.246 92.2093 33.258V32.88C92.6053 32.88 92.8813 32.796 93.0373 32.628C93.2053 32.46 93.2893 32.136 93.2893 31.656V22.656C93.2893 22.116 93.2053 21.72 93.0373 21.468C92.8693 21.204 92.5693 21.072 92.1373 21.072V20.694C92.5213 20.73 92.8933 20.748 93.2533 20.748C93.7453 20.748 94.2133 20.73 94.6573 20.694C95.1013 20.646 95.5093 20.58 95.8813 20.496ZM98.6713 20.442C99.2833 20.442 99.8293 20.61 100.309 20.946C100.789 21.27 101.173 21.768 101.461 22.44C101.749 23.1 101.893 23.928 101.893 24.924C101.893 25.8 101.791 26.568 101.587 27.228C101.395 27.888 101.113 28.446 100.741 28.902C100.381 29.346 99.9433 29.682 99.4273 29.91C98.9233 30.138 98.3533 30.252 97.7173 30.252C97.2493 30.252 96.8233 30.168 96.4393 30C96.0553 29.844 95.7613 29.616 95.5573 29.316L95.7373 29.082C95.8573 29.298 96.0253 29.466 96.2413 29.586C96.4693 29.706 96.7273 29.766 97.0153 29.766C97.5553 29.766 97.9813 29.586 98.2933 29.226C98.6053 28.854 98.8273 28.338 98.9593 27.678C99.1033 27.006 99.1753 26.208 99.1753 25.284C99.1753 24.252 99.1093 23.442 98.9773 22.854C98.8453 22.266 98.6653 21.846 98.4373 21.594C98.2093 21.342 97.9333 21.216 97.6093 21.216C97.1773 21.216 96.7813 21.384 96.4213 21.72C96.0733 22.056 95.8753 22.536 95.8273 23.16L95.7373 22.53C95.9533 21.846 96.3193 21.33 96.8353 20.982C97.3633 20.622 97.9753 20.442 98.6713 20.442ZM107.646 20.442C108.522 20.442 109.29 20.604 109.95 20.928C110.61 21.252 111.126 21.774 111.498 22.494C111.87 23.214 112.056 24.168 112.056 25.356C112.056 26.544 111.87 27.498 111.498 28.218C111.126 28.926 110.61 29.442 109.95 29.766C109.29 30.09 108.522 30.252 107.646 30.252C106.794 30.252 106.032 30.09 105.36 29.766C104.7 29.442 104.178 28.926 103.794 28.218C103.422 27.498 103.236 26.544 103.236 25.356C103.236 24.168 103.422 23.214 103.794 22.494C104.178 21.774 104.7 21.252 105.36 20.928C106.032 20.604 106.794 20.442 107.646 20.442ZM107.646 20.802C107.166 20.802 106.764 21.162 106.44 21.882C106.116 22.59 105.954 23.748 105.954 25.356C105.954 26.964 106.116 28.122 106.44 28.83C106.764 29.538 107.166 29.892 107.646 29.892C108.138 29.892 108.54 29.538 108.852 28.83C109.176 28.122 109.338 26.964 109.338 25.356C109.338 23.748 109.176 22.59 108.852 21.882C108.54 21.162 108.138 20.802 107.646 20.802ZM118.4 20.712C119.312 20.712 120.032 20.802 120.56 20.982C121.088 21.162 121.466 21.414 121.694 21.738C121.922 22.05 122.036 22.416 122.036 22.836C122.036 23.496 121.682 24.06 120.974 24.528C120.266 24.996 119.162 25.23 117.662 25.23C117.662 25.23 117.626 25.224 117.554 25.212C117.482 25.188 117.404 25.17 117.32 25.158C117.248 25.134 117.212 25.122 117.212 25.122C117.824 25.11 118.286 25.026 118.598 24.87C118.91 24.714 119.12 24.486 119.228 24.186C119.348 23.874 119.408 23.49 119.408 23.034C119.408 22.674 119.366 22.35 119.282 22.062C119.21 21.762 119.06 21.528 118.832 21.36C118.616 21.18 118.292 21.09 117.86 21.09C117.512 21.09 117.266 21.174 117.122 21.342C116.99 21.51 116.924 21.858 116.924 22.386V28.326C116.924 28.854 116.996 29.202 117.14 29.37C117.284 29.538 117.542 29.622 117.914 29.622C118.418 29.622 118.808 29.526 119.084 29.334C119.36 29.13 119.546 28.872 119.642 28.56C119.75 28.236 119.804 27.894 119.804 27.534C119.804 26.778 119.624 26.244 119.264 25.932C118.916 25.62 118.388 25.464 117.68 25.464H115.592C115.592 25.464 115.592 25.41 115.592 25.302C115.592 25.182 115.592 25.122 115.592 25.122H118.022L118.328 25.158C119.36 25.158 120.176 25.248 120.776 25.428C121.376 25.608 121.808 25.872 122.072 26.22C122.336 26.568 122.468 27 122.468 27.516C122.468 27.996 122.348 28.428 122.108 28.812C121.868 29.184 121.466 29.478 120.902 29.694C120.35 29.898 119.6 30 118.652 30C118.28 30 117.83 29.988 117.302 29.964C116.774 29.94 116.222 29.928 115.646 29.928C115.202 29.928 114.74 29.94 114.26 29.964C113.78 29.976 113.42 29.988 113.18 30V29.622C113.6 29.622 113.894 29.532 114.062 29.352C114.242 29.172 114.332 28.83 114.332 28.326V22.386C114.332 21.882 114.242 21.54 114.062 21.36C113.894 21.18 113.6 21.09 113.18 21.09V20.712C113.408 20.724 113.75 20.742 114.206 20.766C114.674 20.778 115.118 20.784 115.538 20.784C116.078 20.784 116.594 20.772 117.086 20.748C117.59 20.724 118.028 20.712 118.4 20.712ZM125.982 30.126C125.442 30.126 124.992 30.024 124.632 29.82C124.272 29.616 124.008 29.346 123.84 29.01C123.672 28.662 123.588 28.284 123.588 27.876C123.588 27.36 123.702 26.94 123.93 26.616C124.17 26.292 124.476 26.028 124.848 25.824C125.22 25.62 125.61 25.452 126.018 25.32C126.438 25.188 126.834 25.062 127.206 24.942C127.59 24.81 127.896 24.66 128.124 24.492C128.364 24.312 128.484 24.084 128.484 23.808V22.404C128.484 22.092 128.43 21.816 128.322 21.576C128.226 21.324 128.07 21.132 127.854 21C127.65 20.868 127.38 20.802 127.044 20.802C126.804 20.802 126.564 20.838 126.324 20.91C126.084 20.97 125.886 21.078 125.73 21.234C126.066 21.354 126.324 21.54 126.504 21.792C126.696 22.032 126.792 22.308 126.792 22.62C126.792 23.028 126.648 23.352 126.36 23.592C126.084 23.832 125.754 23.952 125.37 23.952C124.938 23.952 124.608 23.82 124.38 23.556C124.164 23.28 124.056 22.95 124.056 22.566C124.056 22.218 124.14 21.93 124.308 21.702C124.488 21.474 124.734 21.258 125.046 21.054C125.382 20.862 125.784 20.712 126.252 20.604C126.732 20.496 127.248 20.442 127.8 20.442C128.352 20.442 128.85 20.502 129.294 20.622C129.738 20.73 130.11 20.934 130.41 21.234C130.686 21.51 130.866 21.852 130.95 22.26C131.034 22.656 131.076 23.16 131.076 23.772V28.668C131.076 28.968 131.106 29.178 131.166 29.298C131.226 29.406 131.328 29.46 131.472 29.46C131.58 29.46 131.682 29.43 131.778 29.37C131.886 29.31 132 29.238 132.12 29.154L132.3 29.46C132.048 29.676 131.754 29.844 131.418 29.964C131.094 30.072 130.728 30.126 130.32 30.126C129.876 30.126 129.522 30.066 129.258 29.946C128.994 29.814 128.802 29.64 128.682 29.424C128.574 29.208 128.52 28.956 128.52 28.668C128.232 29.124 127.884 29.484 127.476 29.748C127.068 30 126.57 30.126 125.982 30.126ZM127.26 28.974C127.5 28.974 127.716 28.92 127.908 28.812C128.112 28.692 128.304 28.5 128.484 28.236V24.546C128.376 24.726 128.226 24.888 128.034 25.032C127.842 25.176 127.638 25.326 127.422 25.482C127.206 25.626 126.996 25.788 126.792 25.968C126.6 26.148 126.444 26.37 126.324 26.634C126.204 26.898 126.144 27.216 126.144 27.588C126.144 28.056 126.246 28.404 126.45 28.632C126.654 28.86 126.924 28.974 127.26 28.974ZM142.409 20.712C142.361 21.216 142.325 21.702 142.301 22.17C142.289 22.626 142.283 22.98 142.283 23.232C142.283 23.46 142.289 23.688 142.301 23.916C142.313 24.132 142.325 24.312 142.337 24.456H141.923C141.779 23.592 141.581 22.914 141.329 22.422C141.077 21.93 140.795 21.582 140.483 21.378C140.183 21.174 139.859 21.072 139.511 21.072H138.917V28.146C138.917 28.734 139.067 29.13 139.367 29.334C139.679 29.526 140.093 29.622 140.609 29.622V30C140.309 29.988 139.889 29.976 139.349 29.964C138.821 29.94 138.251 29.928 137.639 29.928C137.039 29.928 136.463 29.94 135.911 29.964C135.371 29.976 134.945 29.988 134.633 30V29.622C135.173 29.622 135.587 29.544 135.875 29.388C136.175 29.22 136.325 28.842 136.325 28.254V21.072H135.659C135.335 21.072 135.023 21.174 134.723 21.378C134.423 21.582 134.153 21.93 133.913 22.422C133.685 22.914 133.493 23.592 133.337 24.456H132.923C132.947 24.312 132.959 24.132 132.959 23.916C132.971 23.7 132.977 23.472 132.977 23.232C132.977 22.98 132.965 22.626 132.941 22.17C132.929 21.702 132.899 21.216 132.851 20.712H134.759C135.095 20.712 135.521 20.724 136.037 20.748C136.553 20.76 137.075 20.766 137.603 20.766C138.155 20.766 138.689 20.76 139.205 20.748C139.733 20.724 140.165 20.712 140.501 20.712H142.409ZM148.169 20.712V21.09C147.749 21.09 147.449 21.18 147.269 21.36C147.101 21.54 147.017 21.882 147.017 22.386V28.704C147.017 29.064 147.083 29.31 147.215 29.442C147.347 29.562 147.593 29.622 147.953 29.622C148.481 29.622 148.883 29.514 149.159 29.298C149.447 29.082 149.645 28.8 149.753 28.452C149.861 28.092 149.915 27.714 149.915 27.318C149.915 26.478 149.717 25.872 149.321 25.5C148.937 25.128 148.271 24.942 147.323 24.942C147.095 24.942 146.855 24.948 146.603 24.96C146.351 24.972 146.129 24.978 145.937 24.978L145.901 24.618C146.405 24.618 146.867 24.612 147.287 24.6C147.719 24.588 148.115 24.582 148.475 24.582C149.927 24.582 150.971 24.828 151.607 25.32C152.255 25.812 152.579 26.424 152.579 27.156C152.579 27.6 152.435 28.044 152.147 28.488C151.871 28.92 151.409 29.28 150.761 29.568C150.125 29.856 149.261 30 148.169 30C147.809 30 147.431 29.988 147.035 29.964C146.639 29.94 146.201 29.928 145.721 29.928C145.301 29.928 144.857 29.94 144.389 29.964C143.933 29.976 143.597 29.988 143.381 30V29.622C143.765 29.622 144.035 29.532 144.191 29.352C144.347 29.172 144.425 28.83 144.425 28.326V22.386C144.425 21.882 144.353 21.54 144.209 21.36C144.065 21.18 143.813 21.09 143.453 21.09V20.712C143.657 20.724 143.969 20.742 144.389 20.766C144.809 20.778 145.241 20.784 145.685 20.784C146.141 20.784 146.609 20.778 147.089 20.766C147.569 20.742 147.929 20.724 148.169 20.712Z" fill="black"/>
<path d="M234.707 23.2071C235.098 22.8166 235.098 22.1834 234.707 21.7929L228.343 15.4289C227.953 15.0384 227.319 15.0384 226.929 15.4289C226.538 15.8195 226.538 16.4526 226.929 16.8431L232.586 22.5L226.929 28.1569C226.538 28.5474 226.538 29.1805 226.929 29.5711C227.319 29.9616 227.953 29.9616 228.343 29.5711L234.707 23.2071ZM182 23.5L234 23.5L234 21.5L182 21.5L182 23.5Z" fill="black"/>
<rect x="1" y="1" width="249" height="43" rx="21.5" stroke="#53A3EA" stroke-width="2"/>
</svg>
