<svg width="251" height="45" viewBox="0 0 251 45" fill="none" xmlns="http://www.w3.org/2000/svg">
<path d="M20.526 17.004C21.342 17.004 22.056 17.112 22.668 17.328C23.28 17.544 23.76 17.856 24.108 18.264C24.456 18.672 24.63 19.158 24.63 19.722C24.63 20.226 24.498 20.676 24.234 21.072C23.97 21.456 23.628 21.798 23.208 22.098C22.788 22.386 22.332 22.626 21.84 22.818C21.36 23.01 20.892 23.154 20.436 23.25C21.012 23.262 21.588 23.334 22.164 23.466C22.74 23.598 23.262 23.802 23.73 24.078C24.21 24.354 24.594 24.702 24.882 25.122C25.17 25.53 25.314 26.016 25.314 26.58C25.314 27.168 25.152 27.696 24.828 28.164C24.516 28.62 24.09 29.004 23.55 29.316C23.022 29.616 22.422 29.844 21.75 30C21.078 30.168 20.388 30.252 19.68 30.252C19.068 30.252 18.474 30.186 17.898 30.054C17.334 29.922 16.848 29.706 16.44 29.406C16.176 29.214 15.942 28.98 15.738 28.704C15.546 28.416 15.45 28.098 15.45 27.75C15.45 27.294 15.6 26.934 15.9 26.67C16.2 26.406 16.56 26.274 16.98 26.274C17.4 26.274 17.742 26.394 18.006 26.634C18.27 26.874 18.402 27.234 18.402 27.714C18.402 28.086 18.276 28.404 18.024 28.668C17.784 28.932 17.448 29.118 17.016 29.226C17.244 29.406 17.562 29.556 17.97 29.676C18.378 29.796 18.852 29.856 19.392 29.856C20.388 29.856 21.162 29.58 21.714 29.028C22.278 28.464 22.56 27.66 22.56 26.616C22.56 26.064 22.476 25.548 22.308 25.068C22.14 24.588 21.876 24.198 21.516 23.898C21.156 23.598 20.7 23.436 20.148 23.412C20.028 23.472 19.902 23.526 19.77 23.574C19.65 23.622 19.518 23.646 19.374 23.646C19.278 23.646 19.188 23.622 19.104 23.574C19.032 23.526 18.996 23.448 18.996 23.34C18.996 23.148 19.134 23.052 19.41 23.052C19.53 23.052 19.656 23.064 19.788 23.088C19.92 23.112 20.046 23.136 20.166 23.16C20.61 22.98 20.952 22.734 21.192 22.422C21.444 22.098 21.618 21.732 21.714 21.324C21.81 20.916 21.858 20.49 21.858 20.046C21.858 19.158 21.684 18.516 21.336 18.12C21 17.724 20.508 17.526 19.86 17.526C19.176 17.526 18.612 17.706 18.168 18.066C17.724 18.414 17.382 18.882 17.142 19.47C16.914 20.046 16.776 20.682 16.728 21.378H16.314C16.314 20.622 16.308 19.986 16.296 19.47C16.296 18.954 16.29 18.516 16.278 18.156C16.278 17.796 16.266 17.478 16.242 17.202H16.656C16.692 17.526 16.74 17.772 16.8 17.94C16.86 18.096 16.962 18.174 17.106 18.174C17.202 18.174 17.346 18.108 17.538 17.976C17.79 17.808 18.042 17.652 18.294 17.508C18.546 17.352 18.846 17.232 19.194 17.148C19.554 17.052 19.998 17.004 20.526 17.004ZM28.7441 30.126C28.2041 30.126 27.7541 30.024 27.3941 29.82C27.0341 29.616 26.7701 29.346 26.6021 29.01C26.4341 28.662 26.3501 28.284 26.3501 27.876C26.3501 27.36 26.4641 26.94 26.6921 26.616C26.9321 26.292 27.2381 26.028 27.6101 25.824C27.9821 25.62 28.3721 25.452 28.7801 25.32C29.2001 25.188 29.5961 25.062 29.9681 24.942C30.3521 24.81 30.6581 24.66 30.8861 24.492C31.1261 24.312 31.2461 24.084 31.2461 23.808V22.404C31.2461 22.092 31.1921 21.816 31.0841 21.576C30.9881 21.324 30.8321 21.132 30.6161 21C30.4121 20.868 30.1421 20.802 29.8061 20.802C29.5661 20.802 29.3261 20.838 29.0861 20.91C28.8461 20.97 28.6481 21.078 28.4921 21.234C28.8281 21.354 29.0861 21.54 29.2661 21.792C29.4581 22.032 29.5541 22.308 29.5541 22.62C29.5541 23.028 29.4101 23.352 29.1221 23.592C28.8461 23.832 28.5161 23.952 28.1321 23.952C27.7001 23.952 27.3701 23.82 27.1421 23.556C26.9261 23.28 26.8181 22.95 26.8181 22.566C26.8181 22.218 26.9021 21.93 27.0701 21.702C27.2501 21.474 27.4961 21.258 27.8081 21.054C28.1441 20.862 28.5461 20.712 29.0141 20.604C29.4941 20.496 30.0101 20.442 30.5621 20.442C31.1141 20.442 31.6121 20.502 32.0561 20.622C32.5001 20.73 32.8721 20.934 33.1721 21.234C33.4481 21.51 33.6281 21.852 33.7121 22.26C33.7961 22.656 33.8381 23.16 33.8381 23.772V28.668C33.8381 28.968 33.8681 29.178 33.9281 29.298C33.9881 29.406 34.0901 29.46 34.2341 29.46C34.3421 29.46 34.4441 29.43 34.5401 29.37C34.6481 29.31 34.7621 29.238 34.8821 29.154L35.0621 29.46C34.8101 29.676 34.5161 29.844 34.1801 29.964C33.8561 30.072 33.4901 30.126 33.0821 30.126C32.6381 30.126 32.2841 30.066 32.0201 29.946C31.7561 29.814 31.5641 29.64 31.4441 29.424C31.3361 29.208 31.2821 28.956 31.2821 28.668C30.9941 29.124 30.6461 29.484 30.2381 29.748C29.8301 30 29.3321 30.126 28.7441 30.126ZM30.0221 28.974C30.2621 28.974 30.4781 28.92 30.6701 28.812C30.8741 28.692 31.0661 28.5 31.2461 28.236V24.546C31.1381 24.726 30.9881 24.888 30.7961 25.032C30.6041 25.176 30.4001 25.326 30.1841 25.482C29.9681 25.626 29.7581 25.788 29.5541 25.968C29.3621 26.148 29.2061 26.37 29.0861 26.634C28.9661 26.898 28.9061 27.216 28.9061 27.588C28.9061 28.056 29.0081 28.404 29.2121 28.632C29.4161 28.86 29.6861 28.974 30.0221 28.974ZM46.1785 20.712V21.09C45.7585 21.09 45.4585 21.18 45.2785 21.36C45.1105 21.54 45.0265 21.882 45.0265 22.386V28.326C45.0265 28.83 45.1105 29.172 45.2785 29.352C45.4585 29.532 45.7585 29.622 46.1785 29.622V30C45.9505 29.988 45.6085 29.976 45.1525 29.964C44.6965 29.94 44.2465 29.928 43.8025 29.928C43.3465 29.928 42.8965 29.94 42.4525 29.964C42.0205 29.976 41.6905 29.988 41.4625 30V29.622C41.8225 29.622 42.0745 29.532 42.2185 29.352C42.3625 29.172 42.4345 28.83 42.4345 28.326V22.386C42.4345 21.882 42.3625 21.54 42.2185 21.36C42.0745 21.18 41.8225 21.09 41.4625 21.09H40.2925C39.9445 21.09 39.6925 21.18 39.5365 21.36C39.3925 21.54 39.3205 21.882 39.3205 22.386V28.326C39.3205 28.83 39.3925 29.172 39.5365 29.352C39.6925 29.532 39.9445 29.622 40.2925 29.622V30C40.0765 29.988 39.7585 29.976 39.3385 29.964C38.9305 29.94 38.5045 29.928 38.0605 29.928C37.6045 29.928 37.1365 29.94 36.6565 29.964C36.1765 29.976 35.8165 29.988 35.5765 30V29.622C35.9965 29.622 36.2905 29.532 36.4585 29.352C36.6385 29.172 36.7285 28.83 36.7285 28.326V22.386C36.7285 21.882 36.6385 21.54 36.4585 21.36C36.2905 21.18 35.9965 21.09 35.5765 21.09V20.712C35.8045 20.724 36.1465 20.742 36.6025 20.766C37.0705 20.778 37.5205 20.784 37.9525 20.784C38.4205 20.784 38.8765 20.772 39.3205 20.748C39.7765 20.724 40.2925 20.712 40.8685 20.712C41.4565 20.712 41.9485 20.724 42.3445 20.748C42.7525 20.772 43.2025 20.784 43.6945 20.784C44.1625 20.784 44.6305 20.778 45.0985 20.766C45.5785 20.742 45.9385 20.724 46.1785 20.712ZM57.9635 20.712V21.09C57.5435 21.09 57.2435 21.18 57.0635 21.36C56.8955 21.54 56.8115 21.882 56.8115 22.386V28.326C56.8115 28.83 56.8955 29.172 57.0635 29.352C57.2435 29.532 57.5435 29.622 57.9635 29.622V30C57.7475 29.988 57.4055 29.976 56.9375 29.964C56.4815 29.94 56.0315 29.928 55.5875 29.928C55.1315 29.928 54.6815 29.94 54.2375 29.964C53.8055 29.976 53.4755 29.988 53.2475 30V29.622C53.6075 29.622 53.8595 29.532 54.0035 29.352C54.1475 29.172 54.2195 28.83 54.2195 28.326V22.386C54.2195 21.882 54.1475 21.54 54.0035 21.36C53.8595 21.18 53.6075 21.09 53.2475 21.09V20.712C53.4635 20.724 53.7815 20.742 54.2015 20.766C54.6215 20.778 55.0475 20.784 55.4795 20.784C55.9475 20.784 56.4155 20.778 56.8835 20.766C57.3635 20.742 57.7235 20.724 57.9635 20.712ZM51.7535 20.712V21.09C51.4055 21.09 51.1535 21.18 50.9975 21.36C50.8535 21.54 50.7815 21.882 50.7815 22.386V28.326C50.7815 28.83 50.8535 29.172 50.9975 29.352C51.1535 29.532 51.4055 29.622 51.7535 29.622V30C51.5375 29.988 51.2195 29.976 50.7995 29.964C50.3915 29.94 49.9655 29.928 49.5215 29.928C49.0655 29.928 48.5975 29.94 48.1175 29.964C47.6375 29.976 47.2775 29.988 47.0375 30V29.622C47.4575 29.622 47.7515 29.532 47.9195 29.352C48.0995 29.172 48.1895 28.83 48.1895 28.326V22.386C48.1895 21.882 48.0995 21.54 47.9195 21.36C47.7515 21.18 47.4575 21.09 47.0375 21.09V20.712C47.2655 20.724 47.6075 20.742 48.0635 20.766C48.5315 20.778 48.9815 20.784 49.4135 20.784C49.8815 20.784 50.3315 20.778 50.7635 20.766C51.2075 20.742 51.5375 20.724 51.7535 20.712ZM54.4355 21.81L54.7415 21.99L50.4575 29.244L50.1515 29.064L54.4355 21.81ZM63.5124 20.442C63.9804 20.442 64.4064 20.496 64.7904 20.604C65.1864 20.7 65.5104 20.826 65.7624 20.982C66.0744 21.174 66.3144 21.414 66.4824 21.702C66.6624 21.978 66.7524 22.302 66.7524 22.674C66.7524 23.094 66.6204 23.442 66.3564 23.718C66.0924 23.982 65.7504 24.114 65.3304 24.114C64.9104 24.114 64.5744 23.994 64.3224 23.754C64.0704 23.514 63.9444 23.19 63.9444 22.782C63.9444 22.398 64.0644 22.08 64.3044 21.828C64.5444 21.564 64.8204 21.39 65.1324 21.306C65.0364 21.186 64.8924 21.084 64.7004 21C64.5084 20.916 64.2924 20.874 64.0524 20.874C63.6804 20.874 63.3504 20.982 63.0624 21.198C62.7864 21.414 62.5524 21.714 62.3604 22.098C62.1684 22.482 62.0184 22.932 61.9104 23.448C61.8144 23.964 61.7664 24.528 61.7664 25.14C61.7664 26.064 61.8804 26.79 62.1084 27.318C62.3484 27.846 62.6484 28.218 63.0084 28.434C63.3804 28.65 63.7644 28.758 64.1604 28.758C64.3884 28.758 64.6344 28.722 64.8984 28.65C65.1744 28.578 65.4504 28.434 65.7264 28.218C66.0144 28.002 66.2784 27.696 66.5184 27.3L66.8244 27.408C66.6924 27.852 66.4764 28.296 66.1764 28.74C65.8764 29.184 65.4864 29.55 65.0064 29.838C64.5264 30.114 63.9384 30.252 63.2424 30.252C62.4624 30.252 61.7544 30.084 61.1184 29.748C60.4944 29.4 59.9904 28.872 59.6064 28.164C59.2344 27.444 59.0484 26.52 59.0484 25.392C59.0484 24.312 59.2404 23.406 59.6244 22.674C60.0204 21.93 60.5544 21.372 61.2264 21C61.8984 20.628 62.6604 20.442 63.5124 20.442ZM70.2461 30.126C69.7061 30.126 69.2561 30.024 68.8961 29.82C68.5361 29.616 68.2721 29.346 68.1041 29.01C67.9361 28.662 67.8521 28.284 67.8521 27.876C67.8521 27.36 67.9661 26.94 68.1941 26.616C68.4341 26.292 68.7401 26.028 69.1121 25.824C69.4841 25.62 69.8741 25.452 70.2821 25.32C70.7021 25.188 71.0981 25.062 71.4701 24.942C71.8541 24.81 72.1601 24.66 72.3881 24.492C72.6281 24.312 72.7481 24.084 72.7481 23.808V22.404C72.7481 22.092 72.6941 21.816 72.5861 21.576C72.4901 21.324 72.3341 21.132 72.1181 21C71.9141 20.868 71.6441 20.802 71.3081 20.802C71.0681 20.802 70.8281 20.838 70.5881 20.91C70.3481 20.97 70.1501 21.078 69.9941 21.234C70.3301 21.354 70.5881 21.54 70.7681 21.792C70.9601 22.032 71.0561 22.308 71.0561 22.62C71.0561 23.028 70.9121 23.352 70.6241 23.592C70.3481 23.832 70.0181 23.952 69.6341 23.952C69.2021 23.952 68.8721 23.82 68.6441 23.556C68.4281 23.28 68.3201 22.95 68.3201 22.566C68.3201 22.218 68.4041 21.93 68.5721 21.702C68.7521 21.474 68.9981 21.258 69.3101 21.054C69.6461 20.862 70.0481 20.712 70.5161 20.604C70.9961 20.496 71.5121 20.442 72.0641 20.442C72.6161 20.442 73.1141 20.502 73.5581 20.622C74.0021 20.73 74.3741 20.934 74.6741 21.234C74.9501 21.51 75.1301 21.852 75.2141 22.26C75.2981 22.656 75.3401 23.16 75.3401 23.772V28.668C75.3401 28.968 75.3701 29.178 75.4301 29.298C75.4901 29.406 75.5921 29.46 75.7361 29.46C75.8441 29.46 75.9461 29.43 76.0421 29.37C76.1501 29.31 76.2641 29.238 76.3841 29.154L76.5641 29.46C76.3121 29.676 76.0181 29.844 75.6821 29.964C75.3581 30.072 74.9921 30.126 74.5841 30.126C74.1401 30.126 73.7861 30.066 73.5221 29.946C73.2581 29.814 73.0661 29.64 72.9461 29.424C72.8381 29.208 72.7841 28.956 72.7841 28.668C72.4961 29.124 72.1481 29.484 71.7401 29.748C71.3321 30 70.8341 30.126 70.2461 30.126ZM71.5241 28.974C71.7641 28.974 71.9801 28.92 72.1721 28.812C72.3761 28.692 72.5681 28.5 72.7481 28.236V24.546C72.6401 24.726 72.4901 24.888 72.2981 25.032C72.1061 25.176 71.9021 25.326 71.6861 25.482C71.4701 25.626 71.2601 25.788 71.0561 25.968C70.8641 26.148 70.7081 26.37 70.5881 26.634C70.4681 26.898 70.4081 27.216 70.4081 27.588C70.4081 28.056 70.5101 28.404 70.7141 28.632C70.9181 28.86 71.1881 28.974 71.5241 28.974ZM86.6725 20.712C86.6245 21.216 86.5885 21.702 86.5645 22.17C86.5525 22.626 86.5465 22.98 86.5465 23.232C86.5465 23.46 86.5525 23.688 86.5645 23.916C86.5765 24.132 86.5885 24.312 86.6005 24.456H86.1865C86.0425 23.592 85.8445 22.914 85.5925 22.422C85.3405 21.93 85.0585 21.582 84.7465 21.378C84.4465 21.174 84.1225 21.072 83.7745 21.072H83.1805V28.146C83.1805 28.734 83.3305 29.13 83.6305 29.334C83.9425 29.526 84.3565 29.622 84.8725 29.622V30C84.5725 29.988 84.1525 29.976 83.6125 29.964C83.0845 29.94 82.5145 29.928 81.9025 29.928C81.3025 29.928 80.7265 29.94 80.1745 29.964C79.6345 29.976 79.2085 29.988 78.8965 30V29.622C79.4365 29.622 79.8505 29.544 80.1385 29.388C80.4385 29.22 80.5885 28.842 80.5885 28.254V21.072H79.9225C79.5985 21.072 79.2865 21.174 78.9865 21.378C78.6865 21.582 78.4165 21.93 78.1765 22.422C77.9485 22.914 77.7565 23.592 77.6005 24.456H77.1865C77.2105 24.312 77.2225 24.132 77.2225 23.916C77.2345 23.7 77.2405 23.472 77.2405 23.232C77.2405 22.98 77.2285 22.626 77.2045 22.17C77.1925 21.702 77.1625 21.216 77.1145 20.712H79.0225C79.3585 20.712 79.7845 20.724 80.3005 20.748C80.8165 20.76 81.3385 20.766 81.8665 20.766C82.4185 20.766 82.9525 20.76 83.4685 20.748C83.9965 20.724 84.4285 20.712 84.7645 20.712H86.6725ZM92.4326 20.712V21.09C92.0126 21.09 91.7126 21.18 91.5326 21.36C91.3646 21.54 91.2806 21.882 91.2806 22.386V28.704C91.2806 29.064 91.3466 29.31 91.4786 29.442C91.6106 29.562 91.8566 29.622 92.2166 29.622C92.7446 29.622 93.1466 29.514 93.4226 29.298C93.7106 29.082 93.9086 28.8 94.0166 28.452C94.1246 28.092 94.1786 27.714 94.1786 27.318C94.1786 26.478 93.9806 25.872 93.5846 25.5C93.2006 25.128 92.5346 24.942 91.5866 24.942C91.3586 24.942 91.1186 24.948 90.8666 24.96C90.6146 24.972 90.3926 24.978 90.2006 24.978L90.1646 24.618C90.6686 24.618 91.1306 24.612 91.5506 24.6C91.9826 24.588 92.3786 24.582 92.7386 24.582C94.1906 24.582 95.2346 24.828 95.8706 25.32C96.5186 25.812 96.8426 26.424 96.8426 27.156C96.8426 27.6 96.6986 28.044 96.4106 28.488C96.1346 28.92 95.6726 29.28 95.0246 29.568C94.3886 29.856 93.5246 30 92.4326 30C92.0726 30 91.6946 29.988 91.2986 29.964C90.9026 29.94 90.4646 29.928 89.9846 29.928C89.5646 29.928 89.1206 29.94 88.6526 29.964C88.1966 29.976 87.8606 29.988 87.6446 30V29.622C88.0286 29.622 88.2986 29.532 88.4546 29.352C88.6106 29.172 88.6886 28.83 88.6886 28.326V22.386C88.6886 21.882 88.6166 21.54 88.4726 21.36C88.3286 21.18 88.0766 21.09 87.7166 21.09V20.712C87.9206 20.724 88.2326 20.742 88.6526 20.766C89.0726 20.778 89.5046 20.784 89.9486 20.784C90.4046 20.784 90.8726 20.778 91.3526 20.766C91.8326 20.742 92.1926 20.724 92.4326 20.712ZM102.307 20.442C102.775 20.442 103.201 20.496 103.585 20.604C103.981 20.7 104.305 20.826 104.557 20.982C104.869 21.174 105.109 21.414 105.277 21.702C105.457 21.978 105.547 22.302 105.547 22.674C105.547 23.094 105.415 23.442 105.151 23.718C104.887 23.982 104.545 24.114 104.125 24.114C103.705 24.114 103.369 23.994 103.117 23.754C102.865 23.514 102.739 23.19 102.739 22.782C102.739 22.398 102.859 22.08 103.099 21.828C103.339 21.564 103.615 21.39 103.927 21.306C103.831 21.186 103.687 21.084 103.495 21C103.303 20.916 103.087 20.874 102.847 20.874C102.475 20.874 102.145 20.982 101.857 21.198C101.581 21.414 101.347 21.714 101.155 22.098C100.963 22.482 100.813 22.932 100.705 23.448C100.609 23.964 100.561 24.528 100.561 25.14C100.561 26.064 100.675 26.79 100.903 27.318C101.143 27.846 101.443 28.218 101.803 28.434C102.175 28.65 102.559 28.758 102.955 28.758C103.183 28.758 103.429 28.722 103.693 28.65C103.969 28.578 104.245 28.434 104.521 28.218C104.809 28.002 105.073 27.696 105.313 27.3L105.619 27.408C105.487 27.852 105.271 28.296 104.971 28.74C104.671 29.184 104.281 29.55 103.801 29.838C103.321 30.114 102.733 30.252 102.037 30.252C101.257 30.252 100.549 30.084 99.9133 29.748C99.2893 29.4 98.7853 28.872 98.4013 28.164C98.0293 27.444 97.8433 26.52 97.8433 25.392C97.8433 24.312 98.0353 23.406 98.4193 22.674C98.8153 21.93 99.3493 21.372 100.021 21C100.693 20.628 101.455 20.442 102.307 20.442ZM116.079 20.712V21.09C115.707 21.09 115.437 21.18 115.269 21.36C115.113 21.54 115.035 21.882 115.035 22.386V28.326C115.035 28.83 115.107 29.172 115.251 29.352C115.407 29.532 115.659 29.622 116.007 29.622V30C115.791 29.988 115.473 29.976 115.053 29.964C114.645 29.94 114.219 29.928 113.775 29.928C113.343 29.928 112.893 29.94 112.425 29.964C111.969 29.976 111.627 29.988 111.399 30V29.622C111.783 29.622 112.053 29.532 112.209 29.352C112.365 29.172 112.443 28.83 112.443 28.326V22.008C112.443 21.648 112.377 21.408 112.245 21.288C112.125 21.156 111.897 21.09 111.561 21.09C111.057 21.09 110.673 21.186 110.409 21.378C110.145 21.57 109.965 21.828 109.869 22.152C109.773 22.464 109.725 22.806 109.725 23.178C109.725 23.958 109.905 24.528 110.265 24.888C110.625 25.248 111.243 25.434 112.119 25.446C112.371 25.446 112.617 25.446 112.857 25.446C113.109 25.434 113.331 25.428 113.523 25.428L113.559 25.806C113.067 25.806 112.611 25.812 112.191 25.824C111.783 25.824 111.411 25.824 111.075 25.824C110.271 25.836 109.611 25.77 109.095 25.626C108.579 25.482 108.171 25.29 107.871 25.05C107.571 24.81 107.361 24.54 107.241 24.24C107.133 23.928 107.079 23.61 107.079 23.286C107.079 22.758 107.211 22.302 107.475 21.918C107.739 21.534 108.171 21.24 108.771 21.036C109.383 20.82 110.205 20.712 111.237 20.712C111.657 20.712 112.053 20.724 112.425 20.748C112.809 20.772 113.247 20.784 113.739 20.784C114.171 20.784 114.609 20.778 115.053 20.766C115.509 20.742 115.851 20.724 116.079 20.712ZM112.119 25.662V25.824C111.807 25.836 111.513 25.884 111.237 25.968C110.973 26.04 110.739 26.184 110.535 26.4C110.367 26.568 110.229 26.778 110.121 27.03C110.013 27.27 109.917 27.534 109.833 27.822C109.749 28.098 109.647 28.392 109.527 28.704C109.347 29.208 109.071 29.562 108.699 29.766C108.327 29.97 107.775 30.072 107.043 30.072C106.875 30.072 106.695 30.066 106.503 30.054C106.311 30.042 106.101 30.024 105.873 30V29.622C106.185 29.598 106.419 29.55 106.575 29.478C106.731 29.394 106.845 29.286 106.917 29.154C107.001 29.022 107.085 28.848 107.169 28.632C107.337 28.212 107.469 27.87 107.565 27.606C107.673 27.33 107.775 27.108 107.871 26.94C107.967 26.76 108.081 26.616 108.213 26.508C108.321 26.4 108.459 26.298 108.627 26.202C108.795 26.094 109.023 25.998 109.311 25.914C109.599 25.83 109.971 25.764 110.427 25.716C110.883 25.668 111.447 25.65 112.119 25.662Z" fill="white"/>
<path d="M236.707 23.2071C237.098 22.8166 237.098 22.1834 236.707 21.7929L230.343 15.4289C229.953 15.0384 229.319 15.0384 228.929 15.4289C228.538 15.8195 228.538 16.4526 228.929 16.8431L234.586 22.5L228.929 28.1569C228.538 28.5474 228.538 29.1805 228.929 29.5711C229.319 29.9616 229.953 29.9616 230.343 29.5711L236.707 23.2071ZM184 23.5L236 23.5L236 21.5L184 21.5L184 23.5Z" fill="white"/>
<rect x="1.5" y="1.5" width="248" height="42" rx="21" stroke="#53A3EA" stroke-width="3"/>
</svg>
