<svg width="383" height="62" viewBox="0 0 383 62" fill="none" xmlns="http://www.w3.org/2000/svg">
<path d="M1.4375 17V5.57812H10.4766V17H8.0625V7.59375H3.85938V17H1.4375ZM21.1094 12.6172C21.1094 13.3464 21.0104 13.9922 20.8125 14.5547C20.6198 15.1172 20.3359 15.5938 19.9609 15.9844C19.5911 16.3698 19.1432 16.6615 18.6172 16.8594C18.0964 17.0573 17.5078 17.1562 16.8516 17.1562C16.237 17.1562 15.6719 17.0573 15.1562 16.8594C14.6458 16.6615 14.2005 16.3698 13.8203 15.9844C13.4453 15.5938 13.1536 15.1172 12.9453 14.5547C12.7422 13.9922 12.6406 13.3464 12.6406 12.6172C12.6406 11.6484 12.8125 10.8281 13.1562 10.1562C13.5 9.48438 13.9896 8.97396 14.625 8.625C15.2604 8.27604 16.0182 8.10156 16.8984 8.10156C17.7161 8.10156 18.4401 8.27604 19.0703 8.625C19.7057 8.97396 20.2031 9.48438 20.5625 10.1562C20.9271 10.8281 21.1094 11.6484 21.1094 12.6172ZM15.0703 12.6172C15.0703 13.1901 15.1328 13.6719 15.2578 14.0625C15.3828 14.4531 15.5781 14.7474 15.8438 14.9453C16.1094 15.1432 16.4557 15.2422 16.8828 15.2422C17.3047 15.2422 17.6458 15.1432 17.9062 14.9453C18.1719 14.7474 18.3646 14.4531 18.4844 14.0625C18.6094 13.6719 18.6719 13.1901 18.6719 12.6172C18.6719 12.0391 18.6094 11.5599 18.4844 11.1797C18.3646 10.7943 18.1719 10.5052 17.9062 10.3125C17.6406 10.1198 17.2943 10.0234 16.8672 10.0234C16.237 10.0234 15.7786 10.2396 15.4922 10.6719C15.2109 11.1042 15.0703 11.7526 15.0703 12.6172ZM30.9297 8.26562V15.2578H32.2109V20.1328H30.0703V17H24.1953V20.1328H22.0547V15.2578H22.7891C23.1745 14.6693 23.4974 13.9974 23.7578 13.2422C24.0234 12.487 24.237 11.6875 24.3984 10.8438C24.5651 9.99479 24.6849 9.13542 24.7578 8.26562H30.9297ZM28.5469 10.0547H26.7578C26.6745 10.7005 26.5677 11.3255 26.4375 11.9297C26.3125 12.5286 26.1562 13.1068 25.9688 13.6641C25.7812 14.2161 25.5521 14.7474 25.2812 15.2578H28.5469V10.0547ZM41.6406 8.26562V17H39.25V10.0547H36.0859V17H33.7031V8.26562H41.6406ZM46.4453 8.26562V11.7188C46.4453 11.8958 46.4375 12.1198 46.4219 12.3906C46.4115 12.6562 46.3958 12.9271 46.375 13.2031C46.3542 13.4792 46.3333 13.7266 46.3125 13.9453C46.2917 14.1641 46.276 14.3125 46.2656 14.3906L50.2969 8.26562H53.1641V17H50.8594V13.5156C50.8594 13.2292 50.8698 12.9141 50.8906 12.5703C50.9115 12.2214 50.9349 11.8932 50.9609 11.5859C50.987 11.2786 51.0052 11.0469 51.0156 10.8906L47 17H44.1406V8.26562H46.4453ZM68.6797 8.26562V17H55.6719V8.26562H58.0547V15.2109H60.9844V8.26562H63.3672V15.2109H66.2969V8.26562H68.6797ZM73.4922 8.26562V11.7188C73.4922 11.8958 73.4844 12.1198 73.4688 12.3906C73.4583 12.6562 73.4427 12.9271 73.4219 13.2031C73.401 13.4792 73.3802 13.7266 73.3594 13.9453C73.3385 14.1641 73.3229 14.3125 73.3125 14.3906L77.3438 8.26562H80.2109V17H77.9062V13.5156C77.9062 13.2292 77.9167 12.9141 77.9375 12.5703C77.9583 12.2214 77.9818 11.8932 78.0078 11.5859C78.0339 11.2786 78.0521 11.0469 78.0625 10.8906L74.0469 17H71.1875V8.26562H73.4922ZM89.9453 10.0547H87.0859V17H84.7031V10.0547H81.8359V8.26562H89.9453V10.0547ZM95.1797 8.10156C95.987 8.10156 96.6823 8.25781 97.2656 8.57031C97.849 8.8776 98.2995 9.32552 98.6172 9.91406C98.9349 10.5026 99.0938 11.2214 99.0938 12.0703V13.2266H93.4609C93.487 13.8984 93.6875 14.4271 94.0625 14.8125C94.4427 15.1927 94.9688 15.3828 95.6406 15.3828C96.1979 15.3828 96.7083 15.3255 97.1719 15.2109C97.6354 15.0964 98.112 14.9245 98.6016 14.6953V16.5391C98.1693 16.7526 97.7161 16.9089 97.2422 17.0078C96.7734 17.1068 96.2031 17.1562 95.5312 17.1562C94.6562 17.1562 93.8802 16.9948 93.2031 16.6719C92.5312 16.349 92.0026 15.8568 91.6172 15.1953C91.237 14.5339 91.0469 13.7005 91.0469 12.6953C91.0469 11.6745 91.2188 10.8255 91.5625 10.1484C91.9115 9.46615 92.3958 8.95573 93.0156 8.61719C93.6354 8.27344 94.3568 8.10156 95.1797 8.10156ZM95.1953 9.79688C94.7318 9.79688 94.3464 9.94531 94.0391 10.2422C93.737 10.5391 93.5625 11.0052 93.5156 11.6406H96.8594C96.8542 11.2865 96.7891 10.9714 96.6641 10.6953C96.5443 10.4193 96.362 10.2005 96.1172 10.0391C95.8776 9.8776 95.5703 9.79688 95.1953 9.79688ZM104.578 17.1562C103.714 17.1562 102.977 17 102.367 16.6875C101.758 16.3698 101.294 15.8802 100.977 15.2188C100.659 14.5573 100.5 13.7109 100.5 12.6797C100.5 11.612 100.68 10.7422 101.039 10.0703C101.404 9.39323 101.906 8.89583 102.547 8.57812C103.193 8.26042 103.94 8.10156 104.789 8.10156C105.393 8.10156 105.914 8.16146 106.352 8.28125C106.794 8.39583 107.18 8.53385 107.508 8.69531L106.805 10.5391C106.43 10.388 106.081 10.2656 105.758 10.1719C105.435 10.0729 105.112 10.0234 104.789 10.0234C104.372 10.0234 104.026 10.1224 103.75 10.3203C103.474 10.513 103.268 10.8047 103.133 11.1953C102.997 11.5859 102.93 12.0755 102.93 12.6641C102.93 13.2422 103.003 13.7214 103.148 14.1016C103.294 14.4818 103.505 14.7656 103.781 14.9531C104.057 15.1354 104.393 15.2266 104.789 15.2266C105.284 15.2266 105.724 15.1615 106.109 15.0312C106.495 14.8958 106.87 14.7083 107.234 14.4688V16.5078C106.87 16.737 106.487 16.901 106.086 17C105.69 17.1042 105.188 17.1562 104.578 17.1562ZM111.648 11.6406H113.328C114.224 11.6406 114.964 11.7344 115.547 11.9219C116.13 12.1094 116.565 12.3958 116.852 12.7812C117.138 13.1615 117.281 13.6406 117.281 14.2188C117.281 14.7812 117.151 15.2708 116.891 15.6875C116.63 16.1042 116.216 16.4271 115.648 16.6562C115.081 16.8854 114.339 17 113.422 17H109.266V8.26562H111.648V11.6406ZM114.898 14.25C114.898 13.9115 114.763 13.6667 114.492 13.5156C114.221 13.3646 113.818 13.2891 113.281 13.2891H111.648V15.3516H113.312C113.776 15.3516 114.156 15.2682 114.453 15.1016C114.75 14.9297 114.898 14.6458 114.898 14.25ZM125.633 8.26562V11.625H128.961V8.26562H131.344V17H128.961V13.3984H125.633V17H123.25V8.26562H125.633ZM137.422 8.08594C138.594 8.08594 139.492 8.34115 140.117 8.85156C140.742 9.36198 141.055 10.138 141.055 11.1797V17H139.391L138.93 15.8125H138.867C138.617 16.125 138.362 16.3802 138.102 16.5781C137.841 16.776 137.542 16.9219 137.203 17.0156C136.865 17.1094 136.453 17.1562 135.969 17.1562C135.453 17.1562 134.99 17.0573 134.578 16.8594C134.172 16.6615 133.852 16.3594 133.617 15.9531C133.383 15.5417 133.266 15.0208 133.266 14.3906C133.266 13.4635 133.591 12.7812 134.242 12.3438C134.893 11.901 135.87 11.6562 137.172 11.6094L138.688 11.5625V11.1797C138.688 10.7214 138.568 10.3854 138.328 10.1719C138.089 9.95833 137.755 9.85156 137.328 9.85156C136.906 9.85156 136.492 9.91146 136.086 10.0312C135.68 10.151 135.273 10.3021 134.867 10.4844L134.078 8.875C134.542 8.63021 135.06 8.4375 135.633 8.29688C136.211 8.15625 136.807 8.08594 137.422 8.08594ZM138.688 12.9531L137.766 12.9844C136.995 13.0052 136.458 13.1432 136.156 13.3984C135.859 13.6536 135.711 13.9896 135.711 14.4062C135.711 14.7708 135.818 15.0312 136.031 15.1875C136.245 15.3385 136.523 15.4141 136.867 15.4141C137.378 15.4141 137.807 15.263 138.156 14.9609C138.51 14.6589 138.688 14.2292 138.688 13.6719V12.9531ZM150.055 8.26562V11.625H153.383V8.26562H155.766V17H153.383V13.3984H150.055V17H147.672V8.26562H150.055ZM161.844 8.08594C163.016 8.08594 163.914 8.34115 164.539 8.85156C165.164 9.36198 165.477 10.138 165.477 11.1797V17H163.812L163.352 15.8125H163.289C163.039 16.125 162.784 16.3802 162.523 16.5781C162.263 16.776 161.964 16.9219 161.625 17.0156C161.286 17.1094 160.875 17.1562 160.391 17.1562C159.875 17.1562 159.411 17.0573 159 16.8594C158.594 16.6615 158.273 16.3594 158.039 15.9531C157.805 15.5417 157.688 15.0208 157.688 14.3906C157.688 13.4635 158.013 12.7812 158.664 12.3438C159.315 11.901 160.292 11.6562 161.594 11.6094L163.109 11.5625V11.1797C163.109 10.7214 162.99 10.3854 162.75 10.1719C162.51 9.95833 162.177 9.85156 161.75 9.85156C161.328 9.85156 160.914 9.91146 160.508 10.0312C160.102 10.151 159.695 10.3021 159.289 10.4844L158.5 8.875C158.964 8.63021 159.482 8.4375 160.055 8.29688C160.633 8.15625 161.229 8.08594 161.844 8.08594ZM163.109 12.9531L162.188 12.9844C161.417 13.0052 160.88 13.1432 160.578 13.3984C160.281 13.6536 160.133 13.9896 160.133 14.4062C160.133 14.7708 160.24 15.0312 160.453 15.1875C160.667 15.3385 160.945 15.4141 161.289 15.4141C161.799 15.4141 162.229 15.263 162.578 14.9609C162.932 14.6589 163.109 14.2292 163.109 13.6719V12.9531ZM171.484 17.1562C170.62 17.1562 169.883 17 169.273 16.6875C168.664 16.3698 168.201 15.8802 167.883 15.2188C167.565 14.5573 167.406 13.7109 167.406 12.6797C167.406 11.612 167.586 10.7422 167.945 10.0703C168.31 9.39323 168.812 8.89583 169.453 8.57812C170.099 8.26042 170.846 8.10156 171.695 8.10156C172.299 8.10156 172.82 8.16146 173.258 8.28125C173.701 8.39583 174.086 8.53385 174.414 8.69531L173.711 10.5391C173.336 10.388 172.987 10.2656 172.664 10.1719C172.341 10.0729 172.018 10.0234 171.695 10.0234C171.279 10.0234 170.932 10.1224 170.656 10.3203C170.38 10.513 170.174 10.8047 170.039 11.1953C169.904 11.5859 169.836 12.0755 169.836 12.6641C169.836 13.2422 169.909 13.7214 170.055 14.1016C170.201 14.4818 170.411 14.7656 170.688 14.9531C170.964 15.1354 171.299 15.2266 171.695 15.2266C172.19 15.2266 172.63 15.1615 173.016 15.0312C173.401 14.8958 173.776 14.7083 174.141 14.4688V16.5078C173.776 16.737 173.393 16.901 172.992 17C172.596 17.1042 172.094 17.1562 171.484 17.1562ZM182.422 8.26562V11.4609C182.422 11.8411 182.513 12.1276 182.695 12.3203C182.883 12.5078 183.143 12.6016 183.477 12.6016C183.935 12.6016 184.359 12.5495 184.75 12.4453C185.146 12.3411 185.544 12.2057 185.945 12.0391V8.26562H188.328V17H185.945V13.5312C185.565 13.7292 185.135 13.9115 184.656 14.0781C184.182 14.2448 183.641 14.3281 183.031 14.3281C182.12 14.3281 181.393 14.0964 180.852 13.6328C180.31 13.1641 180.039 12.4583 180.039 11.5156V8.26562H182.422ZM198.055 10.0547H195.195V17H192.812V10.0547H189.945V8.26562H198.055V10.0547ZM207.625 12.6172C207.625 13.3464 207.526 13.9922 207.328 14.5547C207.135 15.1172 206.852 15.5938 206.477 15.9844C206.107 16.3698 205.659 16.6615 205.133 16.8594C204.612 17.0573 204.023 17.1562 203.367 17.1562C202.753 17.1562 202.188 17.0573 201.672 16.8594C201.161 16.6615 200.716 16.3698 200.336 15.9844C199.961 15.5938 199.669 15.1172 199.461 14.5547C199.258 13.9922 199.156 13.3464 199.156 12.6172C199.156 11.6484 199.328 10.8281 199.672 10.1562C200.016 9.48438 200.505 8.97396 201.141 8.625C201.776 8.27604 202.534 8.10156 203.414 8.10156C204.232 8.10156 204.956 8.27604 205.586 8.625C206.221 8.97396 206.719 9.48438 207.078 10.1562C207.443 10.8281 207.625 11.6484 207.625 12.6172ZM201.586 12.6172C201.586 13.1901 201.648 13.6719 201.773 14.0625C201.898 14.4531 202.094 14.7474 202.359 14.9453C202.625 15.1432 202.971 15.2422 203.398 15.2422C203.82 15.2422 204.161 15.1432 204.422 14.9453C204.688 14.7474 204.88 14.4531 205 14.0625C205.125 13.6719 205.188 13.1901 205.188 12.6172C205.188 12.0391 205.125 11.5599 205 11.1797C204.88 10.7943 204.688 10.5052 204.422 10.3125C204.156 10.1198 203.81 10.0234 203.383 10.0234C202.753 10.0234 202.294 10.2396 202.008 10.6719C201.727 11.1042 201.586 11.7526 201.586 12.6172ZM209.062 11.7656C209.062 10.4792 209.221 9.38542 209.539 8.48438C209.857 7.58333 210.362 6.86458 211.055 6.32812C211.747 5.78646 212.656 5.41927 213.781 5.22656C214.344 5.1276 214.914 5.04688 215.492 4.98438C216.076 4.91667 216.68 4.84115 217.305 4.75781L217.578 6.84375C217.307 6.875 217.013 6.90885 216.695 6.94531C216.378 6.98177 216.057 7.02083 215.734 7.0625C215.411 7.09896 215.099 7.13802 214.797 7.17969C214.495 7.21615 214.221 7.2526 213.977 7.28906C213.445 7.3724 213.003 7.5026 212.648 7.67969C212.294 7.85677 212.023 8.13802 211.836 8.52344C211.648 8.90885 211.534 9.46354 211.492 10.1875H211.609C211.734 9.98958 211.911 9.78906 212.141 9.58594C212.37 9.3776 212.654 9.20573 212.992 9.07031C213.331 8.92969 213.721 8.85938 214.164 8.85938C214.862 8.85938 215.466 9.0026 215.977 9.28906C216.487 9.57552 216.88 10.0026 217.156 10.5703C217.438 11.1328 217.578 11.8359 217.578 12.6797C217.578 13.6693 217.396 14.4974 217.031 15.1641C216.672 15.8255 216.172 16.3229 215.531 16.6562C214.891 16.9896 214.148 17.1562 213.305 17.1562C212.659 17.1562 212.076 17.0391 211.555 16.8047C211.034 16.5703 210.586 16.224 210.211 15.7656C209.841 15.3073 209.557 14.7448 209.359 14.0781C209.161 13.4062 209.062 12.6354 209.062 11.7656ZM213.445 15.2266C213.784 15.2266 214.078 15.1536 214.328 15.0078C214.583 14.8568 214.781 14.612 214.922 14.2734C215.068 13.9297 215.141 13.4688 215.141 12.8906C215.141 12.1927 215.023 11.6406 214.789 11.2344C214.56 10.8229 214.167 10.6172 213.609 10.6172C213.271 10.6172 212.953 10.7005 212.656 10.8672C212.365 11.0286 212.117 11.2161 211.914 11.4297C211.711 11.638 211.57 11.8151 211.492 11.9609C211.492 12.3724 211.523 12.7734 211.586 13.1641C211.654 13.5495 211.76 13.8984 211.906 14.2109C212.052 14.5234 212.25 14.7708 212.5 14.9531C212.755 15.1354 213.07 15.2266 213.445 15.2266ZM219.547 17V8.26562H221.93V11.6406H223.078C223.969 11.6406 224.703 11.7344 225.281 11.9219C225.865 12.1094 226.297 12.3958 226.578 12.7812C226.859 13.1615 227 13.6406 227 14.2188C227 14.7812 226.87 15.2708 226.609 15.6875C226.349 16.1042 225.938 16.4271 225.375 16.6562C224.812 16.8854 224.076 17 223.164 17H219.547ZM221.93 15.3516H223.031C223.495 15.3516 223.875 15.2682 224.172 15.1016C224.469 14.9297 224.617 14.6458 224.617 14.25C224.617 13.9115 224.482 13.6667 224.211 13.5156C223.94 13.3646 223.536 13.2891 223 13.2891H221.93V15.3516ZM228.266 17V8.26562H230.648V17H228.266ZM236.062 8.26562H238.672L240.32 13.1797C240.372 13.3359 240.417 13.4948 240.453 13.6562C240.49 13.8177 240.521 13.9844 240.547 14.1562C240.573 14.3281 240.594 14.5078 240.609 14.6953H240.656C240.688 14.4141 240.729 14.151 240.781 13.9062C240.839 13.6615 240.909 13.4193 240.992 13.1797L242.609 8.26562H245.164L241.469 18.1172C241.245 18.7214 240.953 19.224 240.594 19.625C240.234 20.0312 239.82 20.3359 239.352 20.5391C238.888 20.7422 238.378 20.8438 237.82 20.8438C237.549 20.8438 237.315 20.8281 237.117 20.7969C236.919 20.7708 236.75 20.7422 236.609 20.7109V18.8203C236.719 18.8464 236.857 18.8698 237.023 18.8906C237.19 18.9115 237.365 18.9219 237.547 18.9219C237.88 18.9219 238.167 18.8516 238.406 18.7109C238.646 18.5703 238.846 18.3802 239.008 18.1406C239.169 17.9062 239.297 17.6484 239.391 17.3672L239.531 16.9375L236.062 8.26562ZM249.602 8.10156C250.232 8.10156 250.82 8.1849 251.367 8.35156C251.914 8.51302 252.357 8.76562 252.695 9.10938C253.034 9.44792 253.203 9.88542 253.203 10.4219C253.203 10.9479 253.044 11.3672 252.727 11.6797C252.409 11.987 251.987 12.2083 251.461 12.3438V12.4219C251.831 12.5104 252.164 12.6302 252.461 12.7812C252.763 12.9323 253.003 13.1406 253.18 13.4062C253.357 13.6719 253.445 14.0208 253.445 14.4531C253.445 14.9375 253.292 15.3854 252.984 15.7969C252.677 16.2031 252.206 16.5312 251.57 16.7812C250.94 17.0312 250.13 17.1562 249.141 17.1562C248.672 17.1562 248.229 17.1354 247.812 17.0938C247.401 17.0521 247.023 16.9922 246.68 16.9141C246.336 16.8307 246.036 16.7318 245.781 16.6172V14.6484C246.141 14.8151 246.583 14.9688 247.109 15.1094C247.641 15.25 248.206 15.3203 248.805 15.3203C249.237 15.3203 249.628 15.2891 249.977 15.2266C250.331 15.1641 250.609 15.0599 250.812 14.9141C251.021 14.763 251.125 14.5625 251.125 14.3125C251.125 14.0781 251.034 13.8854 250.852 13.7344C250.674 13.5781 250.401 13.4635 250.031 13.3906C249.667 13.3125 249.203 13.2734 248.641 13.2734H247.719V11.625H248.594C249.385 11.625 249.997 11.5599 250.43 11.4297C250.862 11.2995 251.078 11.0599 251.078 10.7109C251.078 10.4297 250.94 10.2188 250.664 10.0781C250.388 9.9375 249.932 9.86719 249.297 9.86719C248.885 9.86719 248.432 9.91667 247.938 10.0156C247.443 10.1094 246.979 10.2448 246.547 10.4219L245.844 8.75781C246.349 8.5651 246.896 8.40885 247.484 8.28906C248.078 8.16406 248.784 8.10156 249.602 8.10156ZM257.695 8.26562V11.625H261.023V8.26562H263.406V17H261.023V13.3984H257.695V17H255.312V8.26562H257.695ZM269.484 8.08594C270.656 8.08594 271.555 8.34115 272.18 8.85156C272.805 9.36198 273.117 10.138 273.117 11.1797V17H271.453L270.992 15.8125H270.93C270.68 16.125 270.424 16.3802 270.164 16.5781C269.904 16.776 269.604 16.9219 269.266 17.0156C268.927 17.1094 268.516 17.1562 268.031 17.1562C267.516 17.1562 267.052 17.0573 266.641 16.8594C266.234 16.6615 265.914 16.3594 265.68 15.9531C265.445 15.5417 265.328 15.0208 265.328 14.3906C265.328 13.4635 265.654 12.7812 266.305 12.3438C266.956 11.901 267.932 11.6562 269.234 11.6094L270.75 11.5625V11.1797C270.75 10.7214 270.63 10.3854 270.391 10.1719C270.151 9.95833 269.818 9.85156 269.391 9.85156C268.969 9.85156 268.555 9.91146 268.148 10.0312C267.742 10.151 267.336 10.3021 266.93 10.4844L266.141 8.875C266.604 8.63021 267.122 8.4375 267.695 8.29688C268.273 8.15625 268.87 8.08594 269.484 8.08594ZM270.75 12.9531L269.828 12.9844C269.057 13.0052 268.521 13.1432 268.219 13.3984C267.922 13.6536 267.773 13.9896 267.773 14.4062C267.773 14.7708 267.88 15.0312 268.094 15.1875C268.307 15.3385 268.586 15.4141 268.93 15.4141C269.44 15.4141 269.87 15.263 270.219 14.9609C270.573 14.6589 270.75 14.2292 270.75 13.6719V12.9531ZM282.805 10.0547H279.945V17H277.562V10.0547H274.695V8.26562H282.805V10.0547ZM286.82 11.6406H288.5C289.396 11.6406 290.135 11.7344 290.719 11.9219C291.302 12.1094 291.737 12.3958 292.023 12.7812C292.31 13.1615 292.453 13.6406 292.453 14.2188C292.453 14.7812 292.323 15.2708 292.062 15.6875C291.802 16.1042 291.388 16.4271 290.82 16.6562C290.253 16.8854 289.51 17 288.594 17H284.438V8.26562H286.82V11.6406ZM290.07 14.25C290.07 13.9115 289.935 13.6667 289.664 13.5156C289.393 13.3646 288.99 13.2891 288.453 13.2891H286.82V15.3516H288.484C288.948 15.3516 289.328 15.2682 289.625 15.1016C289.922 14.9297 290.07 14.6458 290.07 14.25ZM306.359 8.26562V17H303.969V10.0547H300.805V17H298.422V8.26562H306.359ZM312.461 8.10156C313.268 8.10156 313.964 8.25781 314.547 8.57031C315.13 8.8776 315.581 9.32552 315.898 9.91406C316.216 10.5026 316.375 11.2214 316.375 12.0703V13.2266H310.742C310.768 13.8984 310.969 14.4271 311.344 14.8125C311.724 15.1927 312.25 15.3828 312.922 15.3828C313.479 15.3828 313.99 15.3255 314.453 15.2109C314.917 15.0964 315.393 14.9245 315.883 14.6953V16.5391C315.451 16.7526 314.997 16.9089 314.523 17.0078C314.055 17.1068 313.484 17.1562 312.812 17.1562C311.938 17.1562 311.161 16.9948 310.484 16.6719C309.812 16.349 309.284 15.8568 308.898 15.1953C308.518 14.5339 308.328 13.7005 308.328 12.6953C308.328 11.6745 308.5 10.8255 308.844 10.1484C309.193 9.46615 309.677 8.95573 310.297 8.61719C310.917 8.27344 311.638 8.10156 312.461 8.10156ZM312.477 9.79688C312.013 9.79688 311.628 9.94531 311.32 10.2422C311.018 10.5391 310.844 11.0052 310.797 11.6406H314.141C314.135 11.2865 314.07 10.9714 313.945 10.6953C313.826 10.4193 313.643 10.2005 313.398 10.0391C313.159 9.8776 312.852 9.79688 312.477 9.79688ZM323.172 8.10156C324.156 8.10156 324.951 8.48438 325.555 9.25C326.164 10.0156 326.469 11.138 326.469 12.6172C326.469 13.6068 326.326 14.4401 326.039 15.1172C325.753 15.7891 325.357 16.2969 324.852 16.6406C324.346 16.9844 323.766 17.1562 323.109 17.1562C322.688 17.1562 322.326 17.1042 322.023 17C321.721 16.8906 321.464 16.7526 321.25 16.5859C321.036 16.4141 320.852 16.2318 320.695 16.0391H320.57C320.612 16.2474 320.643 16.4609 320.664 16.6797C320.685 16.8984 320.695 17.112 320.695 17.3203V20.8438H318.312V8.26562H320.25L320.586 9.39844H320.695C320.852 9.16406 321.042 8.94792 321.266 8.75C321.49 8.55208 321.758 8.39583 322.07 8.28125C322.388 8.16146 322.755 8.10156 323.172 8.10156ZM322.406 10.0078C321.99 10.0078 321.659 10.0938 321.414 10.2656C321.169 10.4375 320.99 10.6953 320.875 11.0391C320.766 11.3828 320.706 11.8177 320.695 12.3438V12.6016C320.695 13.1641 320.747 13.6406 320.852 14.0312C320.961 14.4219 321.141 14.7188 321.391 14.9219C321.646 15.125 321.995 15.2266 322.438 15.2266C322.802 15.2266 323.102 15.125 323.336 14.9219C323.57 14.7188 323.745 14.4219 323.859 14.0312C323.979 13.6354 324.039 13.1536 324.039 12.5859C324.039 11.7318 323.906 11.0885 323.641 10.6562C323.375 10.224 322.964 10.0078 322.406 10.0078ZM336.18 10.5547C336.18 11.0234 336.031 11.4245 335.734 11.7578C335.443 12.0859 335.01 12.2969 334.438 12.3906V12.4531C335.042 12.526 335.529 12.737 335.898 13.0859C336.268 13.4297 336.453 13.8646 336.453 14.3906C336.453 14.8906 336.323 15.3385 336.062 15.7344C335.802 16.125 335.388 16.4349 334.82 16.6641C334.253 16.888 333.51 17 332.594 17H328.438V8.26562H332.594C333.276 8.26562 333.888 8.33854 334.43 8.48438C334.971 8.625 335.398 8.86198 335.711 9.19531C336.023 9.52865 336.18 9.98177 336.18 10.5547ZM333.984 14.2656C333.984 13.9219 333.849 13.6745 333.578 13.5234C333.312 13.3672 332.917 13.2891 332.391 13.2891H330.82V15.3516H332.438C332.885 15.3516 333.255 15.2682 333.547 15.1016C333.839 14.9349 333.984 14.6562 333.984 14.2656ZM333.766 10.7422C333.766 10.4714 333.659 10.2708 333.445 10.1406C333.232 10.0104 332.917 9.94531 332.5 9.94531H330.82V11.6719H332.227C332.732 11.6719 333.115 11.599 333.375 11.4531C333.635 11.3073 333.766 11.0703 333.766 10.7422ZM338.5 17V8.26562H340.883V11.6406H342.031C342.922 11.6406 343.656 11.7344 344.234 11.9219C344.818 12.1094 345.25 12.3958 345.531 12.7812C345.812 13.1615 345.953 13.6406 345.953 14.2188C345.953 14.7812 345.823 15.2708 345.562 15.6875C345.302 16.1042 344.891 16.4271 344.328 16.6562C343.766 16.8854 343.029 17 342.117 17H338.5ZM340.883 15.3516H341.984C342.448 15.3516 342.828 15.2682 343.125 15.1016C343.422 14.9297 343.57 14.6458 343.57 14.25C343.57 13.9115 343.435 13.6667 343.164 13.5156C342.893 13.3646 342.49 13.2891 341.953 13.2891H340.883V15.3516ZM347.219 17V8.26562H349.602V17H347.219ZM363.117 8.26562V17H360.891V12.7109C360.891 12.2891 360.898 11.875 360.914 11.4688C360.93 11.0625 360.953 10.6875 360.984 10.3438H360.938L358.523 17H356.734L354.281 10.3281H354.219C354.26 10.6771 354.289 11.0521 354.305 11.4531C354.32 11.8542 354.328 12.2943 354.328 12.7734V17H352.109V8.26562H355.484L357.656 14.1875L359.867 8.26562H363.117ZM377.719 12.6172C377.719 13.3464 377.62 13.9922 377.422 14.5547C377.229 15.1172 376.945 15.5938 376.57 15.9844C376.201 16.3698 375.753 16.6615 375.227 16.8594C374.706 17.0573 374.117 17.1562 373.461 17.1562C372.846 17.1562 372.281 17.0573 371.766 16.8594C371.255 16.6615 370.81 16.3698 370.43 15.9844C370.055 15.5938 369.763 15.1172 369.555 14.5547C369.352 13.9922 369.25 13.3464 369.25 12.6172C369.25 11.6484 369.422 10.8281 369.766 10.1562C370.109 9.48438 370.599 8.97396 371.234 8.625C371.87 8.27604 372.628 8.10156 373.508 8.10156C374.326 8.10156 375.049 8.27604 375.68 8.625C376.315 8.97396 376.812 9.48438 377.172 10.1562C377.536 10.8281 377.719 11.6484 377.719 12.6172ZM371.68 12.6172C371.68 13.1901 371.742 13.6719 371.867 14.0625C371.992 14.4531 372.188 14.7474 372.453 14.9453C372.719 15.1432 373.065 15.2422 373.492 15.2422C373.914 15.2422 374.255 15.1432 374.516 14.9453C374.781 14.7474 374.974 14.4531 375.094 14.0625C375.219 13.6719 375.281 13.1901 375.281 12.6172C375.281 12.0391 375.219 11.5599 375.094 11.1797C374.974 10.7943 374.781 10.5052 374.516 10.3125C374.25 10.1198 373.904 10.0234 373.477 10.0234C372.846 10.0234 372.388 10.2396 372.102 10.6719C371.82 11.1042 371.68 11.7526 371.68 12.6172ZM0.71875 33.7656C0.71875 32.4792 0.877604 31.3854 1.19531 30.4844C1.51302 29.5833 2.01823 28.8646 2.71094 28.3281C3.40365 27.7865 4.3125 27.4193 5.4375 27.2266C6 27.1276 6.57031 27.0469 7.14844 26.9844C7.73177 26.9167 8.33594 26.8411 8.96094 26.7578L9.23438 28.8438C8.96354 28.875 8.66927 28.9089 8.35156 28.9453C8.03385 28.9818 7.71354 29.0208 7.39062 29.0625C7.06771 29.099 6.75521 29.138 6.45312 29.1797C6.15104 29.2161 5.8776 29.2526 5.63281 29.2891C5.10156 29.3724 4.65885 29.5026 4.30469 29.6797C3.95052 29.8568 3.67969 30.138 3.49219 30.5234C3.30469 30.9089 3.1901 31.4635 3.14844 32.1875H3.26562C3.39062 31.9896 3.56771 31.7891 3.79688 31.5859C4.02604 31.3776 4.3099 31.2057 4.64844 31.0703C4.98698 30.9297 5.3776 30.8594 5.82031 30.8594C6.51823 30.8594 7.1224 31.0026 7.63281 31.2891C8.14323 31.5755 8.53646 32.0026 8.8125 32.5703C9.09375 33.1328 9.23438 33.8359 9.23438 34.6797C9.23438 35.6693 9.05208 36.4974 8.6875 37.1641C8.32812 37.8255 7.82812 38.3229 7.1875 38.6562C6.54688 38.9896 5.80469 39.1562 4.96094 39.1562C4.3151 39.1562 3.73177 39.0391 3.21094 38.8047C2.6901 38.5703 2.24219 38.224 1.86719 37.7656C1.4974 37.3073 1.21354 36.7448 1.01562 36.0781C0.817708 35.4062 0.71875 34.6354 0.71875 33.7656ZM5.10156 37.2266C5.4401 37.2266 5.73438 37.1536 5.98438 37.0078C6.23958 36.8568 6.4375 36.612 6.57812 36.2734C6.72396 35.9297 6.79688 35.4688 6.79688 34.8906C6.79688 34.1927 6.67969 33.6406 6.44531 33.2344C6.21615 32.8229 5.82292 32.6172 5.26562 32.6172C4.92708 32.6172 4.60938 32.7005 4.3125 32.8672C4.02083 33.0286 3.77344 33.2161 3.57031 33.4297C3.36719 33.638 3.22656 33.8151 3.14844 33.9609C3.14844 34.3724 3.17969 34.7734 3.24219 35.1641C3.3099 35.5495 3.41667 35.8984 3.5625 36.2109C3.70833 36.5234 3.90625 36.7708 4.15625 36.9531C4.41146 37.1354 4.72656 37.2266 5.10156 37.2266ZM19.0234 39H16.6406V32.0547H14.4453C14.3359 33.3359 14.2057 34.4271 14.0547 35.3281C13.9036 36.2292 13.7109 36.9635 13.4766 37.5312C13.2422 38.0938 12.9505 38.5052 12.6016 38.7656C12.2526 39.026 11.8229 39.1562 11.3125 39.1562C11.0312 39.1562 10.7786 39.1354 10.5547 39.0938C10.3359 39.0521 10.1354 38.9896 9.95312 38.9062V37C10.0677 37.0469 10.1901 37.0859 10.3203 37.1172C10.4505 37.1432 10.5833 37.1562 10.7188 37.1562C10.8698 37.1562 11.013 37.0964 11.1484 36.9766C11.2839 36.8568 11.4115 36.651 11.5312 36.3594C11.651 36.0625 11.763 35.6536 11.8672 35.1328C11.9766 34.612 12.0755 33.9531 12.1641 33.1562C12.2526 32.3594 12.3359 31.3958 12.4141 30.2656H19.0234V39ZM23.8359 30.2656V33.7188C23.8359 33.8958 23.8281 34.1198 23.8125 34.3906C23.8021 34.6562 23.7865 34.9271 23.7656 35.2031C23.7448 35.4792 23.724 35.7266 23.7031 35.9453C23.6823 36.1641 23.6667 36.3125 23.6562 36.3906L27.6875 30.2656H30.5547V39H28.25V35.5156C28.25 35.2292 28.2604 34.9141 28.2812 34.5703C28.3021 34.2214 28.3255 33.8932 28.3516 33.5859C28.3776 33.2786 28.3958 33.0469 28.4062 32.8906L24.3906 39H21.5312V30.2656H23.8359ZM45.4766 30.2656L42.2578 34.4531L45.7812 39H43.2344L39.9062 34.5703V39H37.6875V34.5703L34.3594 39H31.8125L35.3359 34.4531L32.1172 30.2656H34.5781L37.6875 34.5078V30.2656H39.9062V34.5078L43.0156 30.2656H45.4766ZM50.6094 30.0859C51.7812 30.0859 52.6797 30.3411 53.3047 30.8516C53.9297 31.362 54.2422 32.138 54.2422 33.1797V39H52.5781L52.1172 37.8125H52.0547C51.8047 38.125 51.5495 38.3802 51.2891 38.5781C51.0286 38.776 50.7292 38.9219 50.3906 39.0156C50.0521 39.1094 49.6406 39.1562 49.1562 39.1562C48.6406 39.1562 48.1771 39.0573 47.7656 38.8594C47.3594 38.6615 47.0391 38.3594 46.8047 37.9531C46.5703 37.5417 46.4531 37.0208 46.4531 36.3906C46.4531 35.4635 46.7786 34.7812 47.4297 34.3438C48.0807 33.901 49.0573 33.6562 50.3594 33.6094L51.875 33.5625V33.1797C51.875 32.7214 51.7552 32.3854 51.5156 32.1719C51.276 31.9583 50.9427 31.8516 50.5156 31.8516C50.0938 31.8516 49.6797 31.9115 49.2734 32.0312C48.8672 32.151 48.4609 32.3021 48.0547 32.4844L47.2656 30.875C47.7292 30.6302 48.2474 30.4375 48.8203 30.2969C49.3984 30.1562 49.9948 30.0859 50.6094 30.0859ZM51.875 34.9531L50.9531 34.9844C50.1823 35.0052 49.6458 35.1432 49.3438 35.3984C49.0469 35.6536 48.8984 35.9896 48.8984 36.4062C48.8984 36.7708 49.0052 37.0312 49.2188 37.1875C49.4323 37.3385 49.7109 37.4141 50.0547 37.4141C50.5651 37.4141 50.9948 37.263 51.3438 36.9609C51.6979 36.6589 51.875 36.2292 51.875 35.6719V34.9531ZM59.0078 30.2656V33.7188C59.0078 33.8958 59 34.1198 58.9844 34.3906C58.974 34.6562 58.9583 34.9271 58.9375 35.2031C58.9167 35.4792 58.8958 35.7266 58.875 35.9453C58.8542 36.1641 58.8385 36.3125 58.8281 36.3906L62.8594 30.2656H65.7266V39H63.4219V35.5156C63.4219 35.2292 63.4323 34.9141 63.4531 34.5703C63.474 34.2214 63.4974 33.8932 63.5234 33.5859C63.5495 33.2786 63.5677 33.0469 63.5781 32.8906L59.5625 39H56.7031V30.2656H59.0078ZM65.0703 26.5078C65.013 27.0599 64.8568 27.5469 64.6016 27.9688C64.3464 28.3906 63.9479 28.7188 63.4062 28.9531C62.8646 29.1875 62.1354 29.3047 61.2188 29.3047C60.276 29.3047 59.5417 29.1927 59.0156 28.9688C58.4896 28.7396 58.1146 28.4167 57.8906 28C57.6667 27.5781 57.5312 27.0807 57.4844 26.5078H59.6172C59.6641 27.0964 59.8125 27.487 60.0625 27.6797C60.3125 27.8672 60.7135 27.9609 61.2656 27.9609C61.724 27.9609 62.099 27.8568 62.3906 27.6484C62.6823 27.4401 62.8568 27.0599 62.9141 26.5078H65.0703ZM81.2422 30.2656V39H68.2344V30.2656H70.6172V37.2109H73.5469V30.2656H75.9297V37.2109H78.8594V30.2656H81.2422ZM86.0547 30.2656V33.7188C86.0547 33.8958 86.0469 34.1198 86.0312 34.3906C86.0208 34.6562 86.0052 34.9271 85.9844 35.2031C85.9635 35.4792 85.9427 35.7266 85.9219 35.9453C85.901 36.1641 85.8854 36.3125 85.875 36.3906L89.9062 30.2656H92.7734V39H90.4688V35.5156C90.4688 35.2292 90.4792 34.9141 90.5 34.5703C90.5208 34.2214 90.5443 33.8932 90.5703 33.5859C90.5964 33.2786 90.6146 33.0469 90.625 32.8906L86.6094 39H83.75V30.2656H86.0547ZM97.0703 34.5391L94.2578 30.2656H96.9609L98.6562 33.0469L100.367 30.2656H103.07L100.227 34.5391L103.203 39H100.492L98.6562 36.0078L96.8125 39H94.1094L97.0703 34.5391ZM115.914 32.0547H113.055V39H110.672V32.0547H107.805V30.2656H115.914V32.0547ZM116.297 30.2656H118.906L120.555 35.1797C120.607 35.3359 120.651 35.4948 120.688 35.6562C120.724 35.8177 120.755 35.9844 120.781 36.1562C120.807 36.3281 120.828 36.5078 120.844 36.6953H120.891C120.922 36.4141 120.964 36.151 121.016 35.9062C121.073 35.6615 121.143 35.4193 121.227 35.1797L122.844 30.2656H125.398L121.703 40.1172C121.479 40.7214 121.188 41.224 120.828 41.625C120.469 42.0312 120.055 42.3359 119.586 42.5391C119.122 42.7422 118.612 42.8438 118.055 42.8438C117.784 42.8438 117.549 42.8281 117.352 42.7969C117.154 42.7708 116.984 42.7422 116.844 42.7109V40.8203C116.953 40.8464 117.091 40.8698 117.258 40.8906C117.424 40.9115 117.599 40.9219 117.781 40.9219C118.115 40.9219 118.401 40.8516 118.641 40.7109C118.88 40.5703 119.081 40.3802 119.242 40.1406C119.404 39.9062 119.531 39.6484 119.625 39.3672L119.766 38.9375L116.297 30.2656ZM131.516 30.1016C132.5 30.1016 133.294 30.4844 133.898 31.25C134.508 32.0156 134.812 33.138 134.812 34.6172C134.812 35.6068 134.669 36.4401 134.383 37.1172C134.096 37.7891 133.701 38.2969 133.195 38.6406C132.69 38.9844 132.109 39.1562 131.453 39.1562C131.031 39.1562 130.669 39.1042 130.367 39C130.065 38.8906 129.807 38.7526 129.594 38.5859C129.38 38.4141 129.195 38.2318 129.039 38.0391H128.914C128.956 38.2474 128.987 38.4609 129.008 38.6797C129.029 38.8984 129.039 39.112 129.039 39.3203V42.8438H126.656V30.2656H128.594L128.93 31.3984H129.039C129.195 31.1641 129.385 30.9479 129.609 30.75C129.833 30.5521 130.102 30.3958 130.414 30.2812C130.732 30.1615 131.099 30.1016 131.516 30.1016ZM130.75 32.0078C130.333 32.0078 130.003 32.0938 129.758 32.2656C129.513 32.4375 129.333 32.6953 129.219 33.0391C129.109 33.3828 129.049 33.8177 129.039 34.3438V34.6016C129.039 35.1641 129.091 35.6406 129.195 36.0312C129.305 36.4219 129.484 36.7188 129.734 36.9219C129.99 37.125 130.339 37.2266 130.781 37.2266C131.146 37.2266 131.445 37.125 131.68 36.9219C131.914 36.7188 132.089 36.4219 132.203 36.0312C132.323 35.6354 132.383 35.1536 132.383 34.5859C132.383 33.7318 132.25 33.0885 131.984 32.6562C131.719 32.224 131.307 32.0078 130.75 32.0078ZM140.359 30.0859C141.531 30.0859 142.43 30.3411 143.055 30.8516C143.68 31.362 143.992 32.138 143.992 33.1797V39H142.328L141.867 37.8125H141.805C141.555 38.125 141.299 38.3802 141.039 38.5781C140.779 38.776 140.479 38.9219 140.141 39.0156C139.802 39.1094 139.391 39.1562 138.906 39.1562C138.391 39.1562 137.927 39.0573 137.516 38.8594C137.109 38.6615 136.789 38.3594 136.555 37.9531C136.32 37.5417 136.203 37.0208 136.203 36.3906C136.203 35.4635 136.529 34.7812 137.18 34.3438C137.831 33.901 138.807 33.6562 140.109 33.6094L141.625 33.5625V33.1797C141.625 32.7214 141.505 32.3854 141.266 32.1719C141.026 31.9583 140.693 31.8516 140.266 31.8516C139.844 31.8516 139.43 31.9115 139.023 32.0312C138.617 32.151 138.211 32.3021 137.805 32.4844L137.016 30.875C137.479 30.6302 137.997 30.4375 138.57 30.2969C139.148 30.1562 139.745 30.0859 140.359 30.0859ZM141.625 34.9531L140.703 34.9844C139.932 35.0052 139.396 35.1432 139.094 35.3984C138.797 35.6536 138.648 35.9896 138.648 36.4062C138.648 36.7708 138.755 37.0312 138.969 37.1875C139.182 37.3385 139.461 37.4141 139.805 37.4141C140.315 37.4141 140.745 37.263 141.094 36.9609C141.448 36.6589 141.625 36.2292 141.625 35.6719V34.9531ZM148.242 34.5391L145.43 30.2656H148.133L149.828 33.0469L151.539 30.2656H154.242L151.398 34.5391L154.375 39H151.664L149.828 36.0078L147.984 39H145.281L148.242 34.5391Z" fill="white"/>
<line y1="60" x2="383" y2="60" stroke="white" stroke-width="4"/>
</svg>
